<?xml version="1.0" encoding="utf-8" standalone="no"?>
<!DOCTYPE svg PUBLIC "-//W3C//DTD SVG 1.1//EN"
  "http://www.w3.org/Graphics/SVG/1.1/DTD/svg11.dtd">
<svg xmlns:xlink="http://www.w3.org/1999/xlink" width="489.35952pt" height="258.95952pt" viewBox="0 0 489.35952 258.95952" xmlns="http://www.w3.org/2000/svg" version="1.1">
 <metadata>
  <rdf:RDF xmlns:dc="http://purl.org/dc/elements/1.1/" xmlns:cc="http://creativecommons.org/ns#" xmlns:rdf="http://www.w3.org/1999/02/22-rdf-syntax-ns#">
   <cc:Work>
    <dc:type rdf:resource="http://purl.org/dc/dcmitype/StillImage"/>
    <dc:date>2026-05-28T20:26:37.208185</dc:date>
    <dc:format>image/svg+xml</dc:format>
    <dc:creator>
     <cc:Agent>
      <dc:title>Matplotlib v3.10.8, https://matplotlib.org/</dc:title>
     </cc:Agent>
    </dc:creator>
   </cc:Work>
  </rdf:RDF>
 </metadata>
 <defs>
  <style type="text/css">*{stroke-linejoin: round; stroke-linecap: butt}</style>
 </defs>
 <g id="figure_1">
  <g id="patch_1">
   <path d="M 0 258.95952 
L 489.35952 258.95952 
L 489.35952 0 
L 0 0 
z
" style="fill: #ffffff"/>
  </g>
  <g id="axes_1">
   <g id="patch_2">
    <path d="M 33.89875 226.52077 
L 486.47952 226.52077 
L 486.47952 14.166016 
L 33.89875 14.166016 
z
" style="fill: #ffffff"/>
   </g>
   <g id="patch_3">
    <path d="M 254.914301 226.52077 
L 465.907667 226.52077 
L 465.907667 14.166016 
L 254.914301 14.166016 
z
" clip-path="url(#pe8eb906993)" style="fill: #d9b4a1; opacity: 0.12"/>
   </g>
   <g id="matplotlib.axis_1">
    <g id="xtick_1">
     <g id="line2d_1">
      <path d="M 43.920935 226.52077 
L 43.920935 14.166016 
" clip-path="url(#pe8eb906993)" style="fill: none; stroke-dasharray: 0.45,1.35; stroke-dashoffset: 0; stroke: #b8b8b8; stroke-opacity: 0.55; stroke-width: 0.45"/>
     </g>
     <g id="line2d_2">
      <defs>
       <path id="mbf124a70f7" d="M 0 0 
L 0 4.8 
" style="stroke: #222222; stroke-width: 0.8"/>
      </defs>
      <g>
       <use xlink:href="#mbf124a70f7" x="43.920935" y="226.52077" style="fill: #222222; stroke: #222222; stroke-width: 0.8"/>
      </g>
     </g>
     <g id="text_1">
      <text style="font-size: 9px; font-family: 'Liberation Serif', serif; text-anchor: middle; fill: #222222" x="43.920935" y="241.065926" transform="rotate(-0 43.920935 241.065926)">0</text>
     </g>
    </g>
    <g id="xtick_2">
     <g id="line2d_3">
      <path d="M 111.547014 226.52077 
L 111.547014 14.166016 
" clip-path="url(#pe8eb906993)" style="fill: none; stroke-dasharray: 0.45,1.35; stroke-dashoffset: 0; stroke: #b8b8b8; stroke-opacity: 0.55; stroke-width: 0.45"/>
     </g>
     <g id="line2d_4">
      <g>
       <use xlink:href="#mbf124a70f7" x="111.547014" y="226.52077" style="fill: #222222; stroke: #222222; stroke-width: 0.8"/>
      </g>
     </g>
     <g id="text_2">
      <text style="font-size: 9px; font-family: 'Liberation Serif', serif; text-anchor: middle; fill: #222222" x="111.547014" y="241.065926" transform="rotate(-0 111.547014 241.065926)">500</text>
     </g>
    </g>
    <g id="xtick_3">
     <g id="line2d_5">
      <path d="M 179.173093 226.52077 
L 179.173093 14.166016 
" clip-path="url(#pe8eb906993)" style="fill: none; stroke-dasharray: 0.45,1.35; stroke-dashoffset: 0; stroke: #b8b8b8; stroke-opacity: 0.55; stroke-width: 0.45"/>
     </g>
     <g id="line2d_6">
      <g>
       <use xlink:href="#mbf124a70f7" x="179.173093" y="226.52077" style="fill: #222222; stroke: #222222; stroke-width: 0.8"/>
      </g>
     </g>
     <g id="text_3">
      <text style="font-size: 9px; font-family: 'Liberation Serif', serif; text-anchor: middle; fill: #222222" x="179.173093" y="241.065926" transform="rotate(-0 179.173093 241.065926)">1,000</text>
     </g>
    </g>
    <g id="xtick_4">
     <g id="line2d_7">
      <path d="M 246.799171 226.52077 
L 246.799171 14.166016 
" clip-path="url(#pe8eb906993)" style="fill: none; stroke-dasharray: 0.45,1.35; stroke-dashoffset: 0; stroke: #b8b8b8; stroke-opacity: 0.55; stroke-width: 0.45"/>
     </g>
     <g id="line2d_8">
      <g>
       <use xlink:href="#mbf124a70f7" x="246.799171" y="226.52077" style="fill: #222222; stroke: #222222; stroke-width: 0.8"/>
      </g>
     </g>
     <g id="text_4">
      <text style="font-size: 9px; font-family: 'Liberation Serif', serif; text-anchor: middle; fill: #222222" x="246.799171" y="241.065926" transform="rotate(-0 246.799171 241.065926)">1,500</text>
     </g>
    </g>
    <g id="xtick_5">
     <g id="line2d_9">
      <path d="M 314.42525 226.52077 
L 314.42525 14.166016 
" clip-path="url(#pe8eb906993)" style="fill: none; stroke-dasharray: 0.45,1.35; stroke-dashoffset: 0; stroke: #b8b8b8; stroke-opacity: 0.55; stroke-width: 0.45"/>
     </g>
     <g id="line2d_10">
      <g>
       <use xlink:href="#mbf124a70f7" x="314.42525" y="226.52077" style="fill: #222222; stroke: #222222; stroke-width: 0.8"/>
      </g>
     </g>
     <g id="text_5">
      <text style="font-size: 9px; font-family: 'Liberation Serif', serif; text-anchor: middle; fill: #222222" x="314.42525" y="241.065926" transform="rotate(-0 314.42525 241.065926)">2,000</text>
     </g>
    </g>
    <g id="xtick_6">
     <g id="line2d_11">
      <path d="M 382.051329 226.52077 
L 382.051329 14.166016 
" clip-path="url(#pe8eb906993)" style="fill: none; stroke-dasharray: 0.45,1.35; stroke-dashoffset: 0; stroke: #b8b8b8; stroke-opacity: 0.55; stroke-width: 0.45"/>
     </g>
     <g id="line2d_12">
      <g>
       <use xlink:href="#mbf124a70f7" x="382.051329" y="226.52077" style="fill: #222222; stroke: #222222; stroke-width: 0.8"/>
      </g>
     </g>
     <g id="text_6">
      <text style="font-size: 9px; font-family: 'Liberation Serif', serif; text-anchor: middle; fill: #222222" x="382.051329" y="241.065926" transform="rotate(-0 382.051329 241.065926)">2,500</text>
     </g>
    </g>
    <g id="xtick_7">
     <g id="line2d_13">
      <path d="M 449.677408 226.52077 
L 449.677408 14.166016 
" clip-path="url(#pe8eb906993)" style="fill: none; stroke-dasharray: 0.45,1.35; stroke-dashoffset: 0; stroke: #b8b8b8; stroke-opacity: 0.55; stroke-width: 0.45"/>
     </g>
     <g id="line2d_14">
      <g>
       <use xlink:href="#mbf124a70f7" x="449.677408" y="226.52077" style="fill: #222222; stroke: #222222; stroke-width: 0.8"/>
      </g>
     </g>
     <g id="text_7">
      <text style="font-size: 9px; font-family: 'Liberation Serif', serif; text-anchor: middle; fill: #222222" x="449.677408" y="241.065926" transform="rotate(-0 449.677408 241.065926)">3,000</text>
     </g>
    </g>
    <g id="text_8">
     <text style="font-size: 10px; font-family: 'Liberation Serif', serif; text-anchor: middle; fill: #111111" x="260.189135" y="253.921708" transform="rotate(-0 260.189135 253.921708)">Training step  (train/global_step)</text>
    </g>
   </g>
   <g id="matplotlib.axis_2">
    <g id="ytick_1">
     <g id="line2d_15">
      <path d="M 33.89875 226.52077 
L 486.47952 226.52077 
" clip-path="url(#pe8eb906993)" style="fill: none; stroke-dasharray: 0.45,1.35; stroke-dashoffset: 0; stroke: #b8b8b8; stroke-opacity: 0.55; stroke-width: 0.45"/>
     </g>
     <g id="line2d_16">
      <defs>
       <path id="mc4cc6c241b" d="M 0 0 
L -3.2 0 
" style="stroke: #222222"/>
      </defs>
      <g>
       <use xlink:href="#mc4cc6c241b" x="33.89875" y="226.52077" style="fill: #222222; stroke: #222222"/>
      </g>
     </g>
     <g id="text_9">
      <text style="font-size: 9px; font-family: 'Liberation Serif', serif; text-anchor: end; fill: #222222" x="27.19875" y="229.643348" transform="rotate(-0 27.19875 229.643348)">0.0</text>
     </g>
    </g>
    <g id="ytick_2">
     <g id="line2d_17">
      <path d="M 33.89875 184.049819 
L 486.47952 184.049819 
" clip-path="url(#pe8eb906993)" style="fill: none; stroke-dasharray: 0.45,1.35; stroke-dashoffset: 0; stroke: #b8b8b8; stroke-opacity: 0.55; stroke-width: 0.45"/>
     </g>
     <g id="line2d_18">
      <g>
       <use xlink:href="#mc4cc6c241b" x="33.89875" y="184.049819" style="fill: #222222; stroke: #222222"/>
      </g>
     </g>
     <g id="text_10">
      <text style="font-size: 9px; font-family: 'Liberation Serif', serif; text-anchor: end; fill: #222222" x="27.19875" y="187.172397" transform="rotate(-0 27.19875 187.172397)">0.2</text>
     </g>
    </g>
    <g id="ytick_3">
     <g id="line2d_19">
      <path d="M 33.89875 141.578868 
L 486.47952 141.578868 
" clip-path="url(#pe8eb906993)" style="fill: none; stroke-dasharray: 0.45,1.35; stroke-dashoffset: 0; stroke: #b8b8b8; stroke-opacity: 0.55; stroke-width: 0.45"/>
     </g>
     <g id="line2d_20">
      <g>
       <use xlink:href="#mc4cc6c241b" x="33.89875" y="141.578868" style="fill: #222222; stroke: #222222"/>
      </g>
     </g>
     <g id="text_11">
      <text style="font-size: 9px; font-family: 'Liberation Serif', serif; text-anchor: end; fill: #222222" x="27.19875" y="144.701446" transform="rotate(-0 27.19875 144.701446)">0.4</text>
     </g>
    </g>
    <g id="ytick_4">
     <g id="line2d_21">
      <path d="M 33.89875 99.107917 
L 486.47952 99.107917 
" clip-path="url(#pe8eb906993)" style="fill: none; stroke-dasharray: 0.45,1.35; stroke-dashoffset: 0; stroke: #b8b8b8; stroke-opacity: 0.55; stroke-width: 0.45"/>
     </g>
     <g id="line2d_22">
      <g>
       <use xlink:href="#mc4cc6c241b" x="33.89875" y="99.107917" style="fill: #222222; stroke: #222222"/>
      </g>
     </g>
     <g id="text_12">
      <text style="font-size: 9px; font-family: 'Liberation Serif', serif; text-anchor: end; fill: #222222" x="27.19875" y="102.230495" transform="rotate(-0 27.19875 102.230495)">0.6</text>
     </g>
    </g>
    <g id="ytick_5">
     <g id="line2d_23">
      <path d="M 33.89875 56.636967 
L 486.47952 56.636967 
" clip-path="url(#pe8eb906993)" style="fill: none; stroke-dasharray: 0.45,1.35; stroke-dashoffset: 0; stroke: #b8b8b8; stroke-opacity: 0.55; stroke-width: 0.45"/>
     </g>
     <g id="line2d_24">
      <g>
       <use xlink:href="#mc4cc6c241b" x="33.89875" y="56.636967" style="fill: #222222; stroke: #222222"/>
      </g>
     </g>
     <g id="text_13">
      <text style="font-size: 9px; font-family: 'Liberation Serif', serif; text-anchor: end; fill: #222222" x="27.19875" y="59.759545" transform="rotate(-0 27.19875 59.759545)">0.8</text>
     </g>
    </g>
    <g id="ytick_6">
     <g id="line2d_25">
      <path d="M 33.89875 14.166016 
L 486.47952 14.166016 
" clip-path="url(#pe8eb906993)" style="fill: none; stroke-dasharray: 0.45,1.35; stroke-dashoffset: 0; stroke: #b8b8b8; stroke-opacity: 0.55; stroke-width: 0.45"/>
     </g>
     <g id="line2d_26">
      <g>
       <use xlink:href="#mc4cc6c241b" x="33.89875" y="14.166016" style="fill: #222222; stroke: #222222"/>
      </g>
     </g>
     <g id="text_14">
      <text style="font-size: 9px; font-family: 'Liberation Serif', serif; text-anchor: end; fill: #222222" x="27.19875" y="17.288594" transform="rotate(-0 27.19875 17.288594)">1.0</text>
     </g>
    </g>
    <g id="text_15">
     <text style="font-size: 10px; font-family: 'Liberation Serif', serif; text-anchor: middle; fill: #111111" x="9.819062" y="120.343393" transform="rotate(-90 9.819062 120.343393)">Waste ratio</text>
    </g>
   </g>
   <g id="FillBetweenPolyCollection_1">
    <defs>
     <path id="m1d96b1b0de" d="M 54.470603 -32.43875 
L 54.470603 -32.43875 
L 70.295106 -32.43875 
L 80.844774 -32.43875 
L 96.669276 -32.43875 
L 107.218945 -32.43875 
L 123.043447 -32.43875 
L 133.593115 -32.43875 
L 149.417618 -32.43875 
L 165.24212 -32.43875 
L 175.791789 -32.43875 
L 191.616291 -32.43875 
L 202.165959 -32.43875 
L 217.990462 -32.43875 
L 228.54013 -32.43875 
L 244.364633 -32.43875 
L 254.914301 -32.43875 
L 265.463969 -32.43875 
L 276.013637 -32.43875 
L 291.83814 -32.43875 
L 302.387808 -32.43875 
L 318.212311 -32.43875 
L 334.036813 -32.43875 
L 344.586481 -32.43875 
L 360.410984 -32.43875 
L 370.960652 -32.43875 
L 386.785155 -32.43875 
L 397.334823 -32.43875 
L 413.159325 -32.43875 
L 428.983828 -32.43875 
L 439.533496 -32.43875 
L 455.357999 -32.43875 
L 465.907667 -32.43875 
L 465.907667 -32.43875 
L 465.907667 -32.43875 
L 455.357999 -32.43875 
L 439.533496 -32.43875 
L 428.983828 -32.43875 
L 413.159325 -32.43875 
L 397.334823 -32.43875 
L 386.785155 -32.43875 
L 370.960652 -32.43875 
L 360.410984 -32.43875 
L 344.586481 -32.43875 
L 334.036813 -32.43875 
L 318.212311 -32.43875 
L 302.387808 -32.43875 
L 291.83814 -32.43875 
L 276.013637 -32.43875 
L 265.463969 -32.43875 
L 254.914301 -32.43875 
L 244.364633 -32.43875 
L 228.54013 -32.43875 
L 217.990462 -32.43875 
L 202.165959 -32.43875 
L 191.616291 -32.43875 
L 175.791789 -32.43875 
L 165.24212 -32.43875 
L 149.417618 -32.43875 
L 133.593115 -32.43875 
L 123.043447 -32.43875 
L 107.218945 -32.43875 
L 96.669276 -32.43875 
L 80.844774 -32.43875 
L 70.295106 -32.43875 
L 54.470603 -32.43875 
z
"/>
    </defs>
    <g clip-path="url(#pe8eb906993)">
     <use xlink:href="#m1d96b1b0de" x="0" y="258.95952" style="fill: #cc79a7; fill-opacity: 0.18"/>
    </g>
   </g>
   <g id="line2d_27">
    <path d="M 54.470603 226.52077 
L 70.295106 226.52077 
L 80.844774 226.52077 
L 96.669276 226.52077 
L 107.218945 226.52077 
L 123.043447 226.52077 
L 133.593115 226.52077 
L 149.417618 226.52077 
L 165.24212 226.52077 
L 175.791789 226.52077 
L 191.616291 184.049819 
L 202.165959 184.049819 
L 217.990462 155.735852 
L 228.54013 155.735852 
L 244.364633 135.51159 
L 254.914301 135.51159 
L 265.463969 226.52077 
L 276.013637 226.52077 
L 291.83814 202.925797 
L 302.387808 202.925797 
L 318.212311 184.049819 
L 334.036813 184.049819 
L 344.586481 168.605837 
L 360.410984 168.605837 
L 370.960652 155.735852 
L 386.785155 155.735852 
L 397.334823 144.845864 
L 413.159325 144.845864 
L 428.983828 135.51159 
L 439.533496 135.51159 
L 455.357999 127.421885 
L 465.907667 127.421885 
" clip-path="url(#pe8eb906993)" style="fill: none; stroke: #cc79a7; stroke-width: 1.6; stroke-linecap: round"/>
    <defs>
     <path id="mc5dbfdbfdc" d="M 0 1.5 
C 0.397805 1.5 0.77937 1.341951 1.06066 1.06066 
C 1.341951 0.77937 1.5 0.397805 1.5 0 
C 1.5 -0.397805 1.341951 -0.77937 1.06066 -1.06066 
C 0.77937 -1.341951 0.397805 -1.5 0 -1.5 
C -0.397805 -1.5 -0.77937 -1.341951 -1.06066 -1.06066 
C -1.341951 -0.77937 -1.5 -0.397805 -1.5 0 
C -1.5 0.397805 -1.341951 0.77937 -1.06066 1.06066 
C -0.77937 1.341951 -0.397805 1.5 0 1.5 
z
"/>
    </defs>
    <g clip-path="url(#pe8eb906993)">
     <use xlink:href="#mc5dbfdbfdc" x="54.470603" y="226.52077" style="fill: #cc79a7"/>
     <use xlink:href="#mc5dbfdbfdc" x="70.295106" y="226.52077" style="fill: #cc79a7"/>
     <use xlink:href="#mc5dbfdbfdc" x="80.844774" y="226.52077" style="fill: #cc79a7"/>
     <use xlink:href="#mc5dbfdbfdc" x="96.669276" y="226.52077" style="fill: #cc79a7"/>
     <use xlink:href="#mc5dbfdbfdc" x="107.218945" y="226.52077" style="fill: #cc79a7"/>
     <use xlink:href="#mc5dbfdbfdc" x="123.043447" y="226.52077" style="fill: #cc79a7"/>
     <use xlink:href="#mc5dbfdbfdc" x="133.593115" y="226.52077" style="fill: #cc79a7"/>
     <use xlink:href="#mc5dbfdbfdc" x="149.417618" y="226.52077" style="fill: #cc79a7"/>
     <use xlink:href="#mc5dbfdbfdc" x="165.24212" y="226.52077" style="fill: #cc79a7"/>
     <use xlink:href="#mc5dbfdbfdc" x="175.791789" y="226.52077" style="fill: #cc79a7"/>
     <use xlink:href="#mc5dbfdbfdc" x="191.616291" y="184.049819" style="fill: #cc79a7"/>
     <use xlink:href="#mc5dbfdbfdc" x="202.165959" y="184.049819" style="fill: #cc79a7"/>
     <use xlink:href="#mc5dbfdbfdc" x="217.990462" y="155.735852" style="fill: #cc79a7"/>
     <use xlink:href="#mc5dbfdbfdc" x="228.54013" y="155.735852" style="fill: #cc79a7"/>
     <use xlink:href="#mc5dbfdbfdc" x="244.364633" y="135.51159" style="fill: #cc79a7"/>
     <use xlink:href="#mc5dbfdbfdc" x="254.914301" y="135.51159" style="fill: #cc79a7"/>
     <use xlink:href="#mc5dbfdbfdc" x="265.463969" y="226.52077" style="fill: #cc79a7"/>
     <use xlink:href="#mc5dbfdbfdc" x="276.013637" y="226.52077" style="fill: #cc79a7"/>
     <use xlink:href="#mc5dbfdbfdc" x="291.83814" y="202.925797" style="fill: #cc79a7"/>
     <use xlink:href="#mc5dbfdbfdc" x="302.387808" y="202.925797" style="fill: #cc79a7"/>
     <use xlink:href="#mc5dbfdbfdc" x="318.212311" y="184.049819" style="fill: #cc79a7"/>
     <use xlink:href="#mc5dbfdbfdc" x="334.036813" y="184.049819" style="fill: #cc79a7"/>
     <use xlink:href="#mc5dbfdbfdc" x="344.586481" y="168.605837" style="fill: #cc79a7"/>
     <use xlink:href="#mc5dbfdbfdc" x="360.410984" y="168.605837" style="fill: #cc79a7"/>
     <use xlink:href="#mc5dbfdbfdc" x="370.960652" y="155.735852" style="fill: #cc79a7"/>
     <use xlink:href="#mc5dbfdbfdc" x="386.785155" y="155.735852" style="fill: #cc79a7"/>
     <use xlink:href="#mc5dbfdbfdc" x="397.334823" y="144.845864" style="fill: #cc79a7"/>
     <use xlink:href="#mc5dbfdbfdc" x="413.159325" y="144.845864" style="fill: #cc79a7"/>
     <use xlink:href="#mc5dbfdbfdc" x="428.983828" y="135.51159" style="fill: #cc79a7"/>
     <use xlink:href="#mc5dbfdbfdc" x="439.533496" y="135.51159" style="fill: #cc79a7"/>
     <use xlink:href="#mc5dbfdbfdc" x="455.357999" y="127.421885" style="fill: #cc79a7"/>
     <use xlink:href="#mc5dbfdbfdc" x="465.907667" y="127.421885" style="fill: #cc79a7"/>
    </g>
   </g>
   <g id="line2d_28">
    <path d="M 254.914301 226.52077 
L 254.914301 14.166016 
" clip-path="url(#pe8eb906993)" style="fill: none; stroke-dasharray: 3.6,2.7; stroke-dashoffset: 0; stroke: #222222; stroke-opacity: 0.95; stroke-width: 0.9"/>
   </g>
   <g id="patch_4">
    <path d="M 33.89875 226.52077 
L 33.89875 14.166016 
" style="fill: none; stroke: #222222; stroke-width: 0.8; stroke-linejoin: miter; stroke-linecap: square"/>
   </g>
   <g id="patch_5">
    <path d="M 33.89875 226.52077 
L 486.47952 226.52077 
" style="fill: none; stroke: #222222; stroke-width: 0.8; stroke-linejoin: miter; stroke-linecap: square"/>
   </g>
   <g id="text_16">
    <text style="font-weight: 700; font-size: 10.5px; font-family: 'Liberation Serif', serif; text-anchor: start; fill: #262626" x="33.89875" y="10.166016" transform="rotate(-0 33.89875 10.166016)">Late-training waste trajectory</text>
   </g>
   <g id="legend_1">
    <g id="patch_6">
     <path d="M 40.69875 26.916016 
L 53.44875 26.916016 
L 53.44875 20.966016 
L 40.69875 20.966016 
z
" style="fill: #d9b4a1; opacity: 0.12"/>
    </g>
    <g id="text_17">
     <text style="font-size: 8.5px; font-family: 'Liberation Serif', serif; text-anchor: start; fill: #262626" x="57.69875" y="26.916016" transform="rotate(-0 57.69875 26.916016)">post-best regime</text>
    </g>
    <g id="patch_7">
     <path d="M 40.69875 38.950156 
L 53.44875 38.950156 
L 53.44875 33.000156 
L 40.69875 33.000156 
z
" style="fill: #cc79a7; fill-opacity: 0.18"/>
    </g>
    <g id="text_18">
     <text style="font-size: 8.5px; font-family: 'Liberation Serif', serif; text-anchor: start; fill: #262626" x="57.69875" y="38.950156" transform="rotate(-0 57.69875 38.950156)">95% CI band</text>
    </g>
    <g id="line2d_29">
     <path d="M 40.69875 47.985391 
L 47.07375 47.985391 
L 53.44875 47.985391 
" style="fill: none; stroke: #cc79a7; stroke-width: 1.6; stroke-linecap: round"/>
     <g>
      <use xlink:href="#mc5dbfdbfdc" x="47.07375" y="47.985391" style="fill: #cc79a7"/>
     </g>
    </g>
    <g id="text_19">
     <text style="font-size: 8.5px; font-family: 'Liberation Serif', serif; text-anchor: start; fill: #262626" x="57.69875" y="50.960391" transform="rotate(-0 57.69875 50.960391)">waste ratio</text>
    </g>
    <g id="line2d_30">
     <path d="M 40.69875 59.995625 
L 47.07375 59.995625 
L 53.44875 59.995625 
" style="fill: none; stroke-dasharray: 3.6,2.7; stroke-dashoffset: 0; stroke: #222222; stroke-opacity: 0.95; stroke-width: 0.9"/>
    </g>
    <g id="text_20">
     <text style="font-size: 8.5px; font-family: 'Liberation Serif', serif; text-anchor: start; fill: #262626" x="57.69875" y="62.970625" transform="rotate(-0 57.69875 62.970625)">best val step</text>
    </g>
   </g>
  </g>
 </g>
 <defs>
  <clipPath id="pe8eb906993">
   <rect x="33.89875" y="14.166016" width="452.58077" height="212.354754"/>
  </clipPath>
 </defs>
</svg>
