<?xml version="1.0" encoding="utf-8" standalone="no"?>
<!DOCTYPE svg PUBLIC "-//W3C//DTD SVG 1.1//EN"
  "http://www.w3.org/Graphics/SVG/1.1/DTD/svg11.dtd">
<svg xmlns:xlink="http://www.w3.org/1999/xlink" width="546.95952pt" height="259.79976pt" viewBox="0 0 546.95952 259.79976" xmlns="http://www.w3.org/2000/svg" version="1.1">
 <metadata>
  <rdf:RDF xmlns:dc="http://purl.org/dc/elements/1.1/" xmlns:cc="http://creativecommons.org/ns#" xmlns:rdf="http://www.w3.org/1999/02/22-rdf-syntax-ns#">
   <cc:Work>
    <dc:type rdf:resource="http://purl.org/dc/dcmitype/StillImage"/>
    <dc:date>2026-05-28T20:26:44.666692</dc:date>
    <dc:format>image/svg+xml</dc:format>
    <dc:creator>
     <cc:Agent>
      <dc:title>Matplotlib v3.10.8, https://matplotlib.org/</dc:title>
     </cc:Agent>
    </dc:creator>
   </cc:Work>
  </rdf:RDF>
 </metadata>
 <defs>
  <style type="text/css">*{stroke-linejoin: round; stroke-linecap: butt}</style>
 </defs>
 <g id="figure_1">
  <g id="patch_1">
   <path d="M 0 259.79976 
L 546.95952 259.79976 
L 546.95952 0 
L 0 0 
z
" style="fill: #ffffff"/>
  </g>
  <g id="axes_1">
   <g id="patch_2">
    <path d="M 33.89875 226.157885 
L 311.294924 226.157885 
L 311.294924 39.312687 
L 33.89875 39.312687 
z
" style="fill: #ffffff"/>
   </g>
   <g id="matplotlib.axis_1">
    <g id="xtick_1">
     <g id="line2d_1">
      <path d="M 41.683501 226.157885 
L 41.683501 39.312687 
" clip-path="url(#p7e964698a8)" style="fill: none; stroke-dasharray: 0.45,1.35; stroke-dashoffset: 0; stroke: #b8b8b8; stroke-opacity: 0.55; stroke-width: 0.45"/>
     </g>
     <g id="line2d_2">
      <defs>
       <path id="m38806bbb4d" d="M 0 0 
L 0 4.8 
" style="stroke: #222222; stroke-width: 0.8"/>
      </defs>
      <g>
       <use xlink:href="#m38806bbb4d" x="41.683501" y="226.157885" style="fill: #222222; stroke: #222222; stroke-width: 0.8"/>
      </g>
     </g>
     <g id="text_1">
      <text style="font-size: 9px; font-family: 'Liberation Serif', serif; text-anchor: middle; fill: #222222" x="41.683501" y="240.703041" transform="rotate(-0 41.683501 240.703041)">−0.50</text>
     </g>
    </g>
    <g id="xtick_2">
     <g id="line2d_3">
      <path d="M 75.10407 226.157885 
L 75.10407 39.312687 
" clip-path="url(#p7e964698a8)" style="fill: none; stroke-dasharray: 0.45,1.35; stroke-dashoffset: 0; stroke: #b8b8b8; stroke-opacity: 0.55; stroke-width: 0.45"/>
     </g>
     <g id="line2d_4">
      <g>
       <use xlink:href="#m38806bbb4d" x="75.10407" y="226.157885" style="fill: #222222; stroke: #222222; stroke-width: 0.8"/>
      </g>
     </g>
     <g id="text_2">
      <text style="font-size: 9px; font-family: 'Liberation Serif', serif; text-anchor: middle; fill: #222222" x="75.10407" y="240.703041" transform="rotate(-0 75.10407 240.703041)">−0.25</text>
     </g>
    </g>
    <g id="xtick_3">
     <g id="line2d_5">
      <path d="M 108.52464 226.157885 
L 108.52464 39.312687 
" clip-path="url(#p7e964698a8)" style="fill: none; stroke-dasharray: 0.45,1.35; stroke-dashoffset: 0; stroke: #b8b8b8; stroke-opacity: 0.55; stroke-width: 0.45"/>
     </g>
     <g id="line2d_6">
      <g>
       <use xlink:href="#m38806bbb4d" x="108.52464" y="226.157885" style="fill: #222222; stroke: #222222; stroke-width: 0.8"/>
      </g>
     </g>
     <g id="text_3">
      <text style="font-size: 9px; font-family: 'Liberation Serif', serif; text-anchor: middle; fill: #222222" x="108.52464" y="240.703041" transform="rotate(-0 108.52464 240.703041)">0.00</text>
     </g>
    </g>
    <g id="xtick_4">
     <g id="line2d_7">
      <path d="M 141.94521 226.157885 
L 141.94521 39.312687 
" clip-path="url(#p7e964698a8)" style="fill: none; stroke-dasharray: 0.45,1.35; stroke-dashoffset: 0; stroke: #b8b8b8; stroke-opacity: 0.55; stroke-width: 0.45"/>
     </g>
     <g id="line2d_8">
      <g>
       <use xlink:href="#m38806bbb4d" x="141.94521" y="226.157885" style="fill: #222222; stroke: #222222; stroke-width: 0.8"/>
      </g>
     </g>
     <g id="text_4">
      <text style="font-size: 9px; font-family: 'Liberation Serif', serif; text-anchor: middle; fill: #222222" x="141.94521" y="240.703041" transform="rotate(-0 141.94521 240.703041)">0.25</text>
     </g>
    </g>
    <g id="xtick_5">
     <g id="line2d_9">
      <path d="M 175.36578 226.157885 
L 175.36578 39.312687 
" clip-path="url(#p7e964698a8)" style="fill: none; stroke-dasharray: 0.45,1.35; stroke-dashoffset: 0; stroke: #b8b8b8; stroke-opacity: 0.55; stroke-width: 0.45"/>
     </g>
     <g id="line2d_10">
      <g>
       <use xlink:href="#m38806bbb4d" x="175.36578" y="226.157885" style="fill: #222222; stroke: #222222; stroke-width: 0.8"/>
      </g>
     </g>
     <g id="text_5">
      <text style="font-size: 9px; font-family: 'Liberation Serif', serif; text-anchor: middle; fill: #222222" x="175.36578" y="240.703041" transform="rotate(-0 175.36578 240.703041)">0.50</text>
     </g>
    </g>
    <g id="xtick_6">
     <g id="line2d_11">
      <path d="M 208.78635 226.157885 
L 208.78635 39.312687 
" clip-path="url(#p7e964698a8)" style="fill: none; stroke-dasharray: 0.45,1.35; stroke-dashoffset: 0; stroke: #b8b8b8; stroke-opacity: 0.55; stroke-width: 0.45"/>
     </g>
     <g id="line2d_12">
      <g>
       <use xlink:href="#m38806bbb4d" x="208.78635" y="226.157885" style="fill: #222222; stroke: #222222; stroke-width: 0.8"/>
      </g>
     </g>
     <g id="text_6">
      <text style="font-size: 9px; font-family: 'Liberation Serif', serif; text-anchor: middle; fill: #222222" x="208.78635" y="240.703041" transform="rotate(-0 208.78635 240.703041)">0.75</text>
     </g>
    </g>
    <g id="xtick_7">
     <g id="line2d_13">
      <path d="M 242.206919 226.157885 
L 242.206919 39.312687 
" clip-path="url(#p7e964698a8)" style="fill: none; stroke-dasharray: 0.45,1.35; stroke-dashoffset: 0; stroke: #b8b8b8; stroke-opacity: 0.55; stroke-width: 0.45"/>
     </g>
     <g id="line2d_14">
      <g>
       <use xlink:href="#m38806bbb4d" x="242.206919" y="226.157885" style="fill: #222222; stroke: #222222; stroke-width: 0.8"/>
      </g>
     </g>
     <g id="text_7">
      <text style="font-size: 9px; font-family: 'Liberation Serif', serif; text-anchor: middle; fill: #222222" x="242.206919" y="240.703041" transform="rotate(-0 242.206919 240.703041)">1.00</text>
     </g>
    </g>
    <g id="xtick_8">
     <g id="line2d_15">
      <path d="M 275.627489 226.157885 
L 275.627489 39.312687 
" clip-path="url(#p7e964698a8)" style="fill: none; stroke-dasharray: 0.45,1.35; stroke-dashoffset: 0; stroke: #b8b8b8; stroke-opacity: 0.55; stroke-width: 0.45"/>
     </g>
     <g id="line2d_16">
      <g>
       <use xlink:href="#m38806bbb4d" x="275.627489" y="226.157885" style="fill: #222222; stroke: #222222; stroke-width: 0.8"/>
      </g>
     </g>
     <g id="text_8">
      <text style="font-size: 9px; font-family: 'Liberation Serif', serif; text-anchor: middle; fill: #222222" x="275.627489" y="240.703041" transform="rotate(-0 275.627489 240.703041)">1.25</text>
     </g>
    </g>
    <g id="xtick_9">
     <g id="line2d_17">
      <path d="M 309.048059 226.157885 
L 309.048059 39.312687 
" clip-path="url(#p7e964698a8)" style="fill: none; stroke-dasharray: 0.45,1.35; stroke-dashoffset: 0; stroke: #b8b8b8; stroke-opacity: 0.55; stroke-width: 0.45"/>
     </g>
     <g id="line2d_18">
      <g>
       <use xlink:href="#m38806bbb4d" x="309.048059" y="226.157885" style="fill: #222222; stroke: #222222; stroke-width: 0.8"/>
      </g>
     </g>
     <g id="text_9">
      <text style="font-size: 9px; font-family: 'Liberation Serif', serif; text-anchor: middle; fill: #222222" x="309.048059" y="240.703041" transform="rotate(-0 309.048059 240.703041)">1.50</text>
     </g>
    </g>
    <g id="text_10">
     <!-- $\log_{10}\,\mathrm{GSNR}_{\mathrm{global}}$ -->
     <g style="fill: #111111" transform="translate(136.896837 253.71976)">
      <text>
       <tspan x="0" y="-0.953125" style="font-size: 10px; font-family: 'cmr10'; fill: #111111">l</tspan>
       <tspan x="2.768555" y="-0.953125" style="font-size: 10px; font-family: 'cmr10'; fill: #111111">o</tspan>
       <tspan x="7.768555" y="-0.953125" style="font-size: 10px; font-family: 'cmr10'; fill: #111111">g</tspan>
       <tspan x="23.779194" y="-0.953125" style="font-size: 10px; font-family: 'cmr10'; fill: #111111">G</tspan>
       <tspan x="31.620991" y="-0.953125" style="font-size: 10px; font-family: 'cmr10'; fill: #111111">S</tspan>
       <tspan x="37.172749" y="-0.953125" style="font-size: 10px; font-family: 'cmr10'; fill: #111111">N</tspan>
       <tspan x="44.672749" y="-0.953125" style="font-size: 10px; font-family: 'cmr10'; fill: #111111">R</tspan>
       <tspan x="13.214969" y="0.7475" style="font-size: 7px; font-family: 'cmr10'; fill: #111111">1</tspan>
       <tspan x="16.714969" y="0.7475" style="font-size: 7px; font-family: 'cmr10'; fill: #111111">0</tspan>
       <tspan x="52.477561" y="0.7475" style="font-size: 7px; font-family: 'cmr10'; fill: #111111">g</tspan>
       <tspan x="55.977561" y="0.7475" style="font-size: 7px; font-family: 'cmr10'; fill: #111111">l</tspan>
       <tspan x="57.915549" y="0.7475" style="font-size: 7px; font-family: 'cmr10'; fill: #111111">o</tspan>
       <tspan x="61.415549" y="0.7475" style="font-size: 7px; font-family: 'cmr10'; fill: #111111">b</tspan>
       <tspan x="65.30178" y="0.7475" style="font-size: 7px; font-family: 'cmr10'; fill: #111111">a</tspan>
       <tspan x="68.80178" y="0.7475" style="font-size: 7px; font-family: 'cmr10'; fill: #111111">l</tspan>
      </text>
     </g>
    </g>
   </g>
   <g id="matplotlib.axis_2">
    <g id="ytick_1">
     <g id="line2d_19">
      <path d="M 33.89875 216.348494 
L 311.294924 216.348494 
" clip-path="url(#p7e964698a8)" style="fill: none; stroke-dasharray: 0.45,1.35; stroke-dashoffset: 0; stroke: #b8b8b8; stroke-opacity: 0.55; stroke-width: 0.45"/>
     </g>
     <g id="line2d_20">
      <defs>
       <path id="mf84e8c8d76" d="M 0 0 
L -3.2 0 
" style="stroke: #222222"/>
      </defs>
      <g>
       <use xlink:href="#mf84e8c8d76" x="33.89875" y="216.348494" style="fill: #222222; stroke: #222222"/>
      </g>
     </g>
     <g id="text_11">
      <text style="font-size: 9px; font-family: 'Liberation Serif', serif; text-anchor: end; fill: #222222" x="27.19875" y="219.471072" transform="rotate(-0 27.19875 219.471072)">0.0</text>
     </g>
    </g>
    <g id="ytick_2">
     <g id="line2d_21">
      <path d="M 33.89875 183.437803 
L 311.294924 183.437803 
" clip-path="url(#p7e964698a8)" style="fill: none; stroke-dasharray: 0.45,1.35; stroke-dashoffset: 0; stroke: #b8b8b8; stroke-opacity: 0.55; stroke-width: 0.45"/>
     </g>
     <g id="line2d_22">
      <g>
       <use xlink:href="#mf84e8c8d76" x="33.89875" y="183.437803" style="fill: #222222; stroke: #222222"/>
      </g>
     </g>
     <g id="text_12">
      <text style="font-size: 9px; font-family: 'Liberation Serif', serif; text-anchor: end; fill: #222222" x="27.19875" y="186.560381" transform="rotate(-0 27.19875 186.560381)">0.5</text>
     </g>
    </g>
    <g id="ytick_3">
     <g id="line2d_23">
      <path d="M 33.89875 150.527112 
L 311.294924 150.527112 
" clip-path="url(#p7e964698a8)" style="fill: none; stroke-dasharray: 0.45,1.35; stroke-dashoffset: 0; stroke: #b8b8b8; stroke-opacity: 0.55; stroke-width: 0.45"/>
     </g>
     <g id="line2d_24">
      <g>
       <use xlink:href="#mf84e8c8d76" x="33.89875" y="150.527112" style="fill: #222222; stroke: #222222"/>
      </g>
     </g>
     <g id="text_13">
      <text style="font-size: 9px; font-family: 'Liberation Serif', serif; text-anchor: end; fill: #222222" x="27.19875" y="153.64969" transform="rotate(-0 27.19875 153.64969)">1.0</text>
     </g>
    </g>
    <g id="ytick_4">
     <g id="line2d_25">
      <path d="M 33.89875 117.616421 
L 311.294924 117.616421 
" clip-path="url(#p7e964698a8)" style="fill: none; stroke-dasharray: 0.45,1.35; stroke-dashoffset: 0; stroke: #b8b8b8; stroke-opacity: 0.55; stroke-width: 0.45"/>
     </g>
     <g id="line2d_26">
      <g>
       <use xlink:href="#mf84e8c8d76" x="33.89875" y="117.616421" style="fill: #222222; stroke: #222222"/>
      </g>
     </g>
     <g id="text_14">
      <text style="font-size: 9px; font-family: 'Liberation Serif', serif; text-anchor: end; fill: #222222" x="27.19875" y="120.738999" transform="rotate(-0 27.19875 120.738999)">1.5</text>
     </g>
    </g>
    <g id="ytick_5">
     <g id="line2d_27">
      <path d="M 33.89875 84.70573 
L 311.294924 84.70573 
" clip-path="url(#p7e964698a8)" style="fill: none; stroke-dasharray: 0.45,1.35; stroke-dashoffset: 0; stroke: #b8b8b8; stroke-opacity: 0.55; stroke-width: 0.45"/>
     </g>
     <g id="line2d_28">
      <g>
       <use xlink:href="#mf84e8c8d76" x="33.89875" y="84.70573" style="fill: #222222; stroke: #222222"/>
      </g>
     </g>
     <g id="text_15">
      <text style="font-size: 9px; font-family: 'Liberation Serif', serif; text-anchor: end; fill: #222222" x="27.19875" y="87.828308" transform="rotate(-0 27.19875 87.828308)">2.0</text>
     </g>
    </g>
    <g id="ytick_6">
     <g id="line2d_29">
      <path d="M 33.89875 51.79504 
L 311.294924 51.79504 
" clip-path="url(#p7e964698a8)" style="fill: none; stroke-dasharray: 0.45,1.35; stroke-dashoffset: 0; stroke: #b8b8b8; stroke-opacity: 0.55; stroke-width: 0.45"/>
     </g>
     <g id="line2d_30">
      <g>
       <use xlink:href="#mf84e8c8d76" x="33.89875" y="51.79504" style="fill: #222222; stroke: #222222"/>
      </g>
     </g>
     <g id="text_16">
      <text style="font-size: 9px; font-family: 'Liberation Serif', serif; text-anchor: end; fill: #222222" x="27.19875" y="54.917618" transform="rotate(-0 27.19875 54.917618)">2.5</text>
     </g>
    </g>
    <g id="text_17">
     <text style="font-size: 10px; font-family: 'Liberation Serif', serif; text-anchor: middle; fill: #111111" x="9.790937" y="132.735286" transform="rotate(-90 9.790937 132.735286)">Density</text>
    </g>
   </g>
   <g id="FillBetweenPolyCollection_1">
    <defs>
     <path id="m61a323429f" d="M 46.507667 -43.451266 
L 46.507667 -43.601316 
L 46.851514 -43.616446 
L 47.195361 -43.632959 
L 47.539208 -43.650967 
L 47.883055 -43.670589 
L 48.226902 -43.691953 
L 48.570749 -43.715192 
L 48.914596 -43.740452 
L 49.258443 -43.767884 
L 49.602289 -43.79765 
L 49.946136 -43.829922 
L 50.289983 -43.864882 
L 50.63383 -43.902723 
L 50.977677 -43.943648 
L 51.321524 -43.98787 
L 51.665371 -44.035617 
L 52.009218 -44.087126 
L 52.353065 -44.142648 
L 52.696912 -44.202445 
L 53.040759 -44.266794 
L 53.384606 -44.335984 
L 53.728453 -44.410317 
L 54.0723 -44.490109 
L 54.416147 -44.575692 
L 54.759994 -44.66741 
L 55.103841 -44.76562 
L 55.447687 -44.870698 
L 55.791534 -44.983029 
L 56.135381 -45.103017 
L 56.479228 -45.231078 
L 56.823075 -45.367644 
L 57.166922 -45.51316 
L 57.510769 -45.668086 
L 57.854616 -45.832896 
L 58.198463 -46.008078 
L 58.54231 -46.194134 
L 58.886157 -46.391578 
L 59.230004 -46.600937 
L 59.573851 -46.822751 
L 59.917698 -47.05757 
L 60.261545 -47.305958 
L 60.605392 -47.568485 
L 60.949239 -47.845735 
L 61.293086 -48.138299 
L 61.636932 -48.446775 
L 61.980779 -48.771769 
L 62.324626 -49.113893 
L 62.668473 -49.473764 
L 63.01232 -49.852002 
L 63.356167 -50.24923 
L 63.700014 -50.666072 
L 64.043861 -51.103153 
L 64.387708 -51.561096 
L 64.731555 -52.04052 
L 65.075402 -52.542042 
L 65.419249 -53.066272 
L 65.763096 -53.613812 
L 66.106943 -54.185257 
L 66.45079 -54.78119 
L 66.794637 -55.402184 
L 67.138484 -56.048795 
L 67.48233 -56.721566 
L 67.826177 -57.421023 
L 68.170024 -58.147672 
L 68.513871 -58.902 
L 68.857718 -59.684472 
L 69.201565 -60.495529 
L 69.545412 -61.335586 
L 69.889259 -62.205032 
L 70.233106 -63.104229 
L 70.576953 -64.033507 
L 70.9208 -64.993165 
L 71.264647 -65.983472 
L 71.608494 -67.004659 
L 71.952341 -68.056926 
L 72.296188 -69.140433 
L 72.640035 -70.255305 
L 72.983882 -71.401626 
L 73.327729 -72.579442 
L 73.671575 -73.788759 
L 74.015422 -75.029541 
L 74.359269 -76.301708 
L 74.703116 -77.605141 
L 75.046963 -78.939675 
L 75.39081 -80.305102 
L 75.734657 -81.701172 
L 76.078504 -83.127588 
L 76.422351 -84.58401 
L 76.766198 -86.070053 
L 77.110045 -87.58529 
L 77.453892 -89.129245 
L 77.797739 -90.701403 
L 78.141586 -92.301203 
L 78.485433 -93.92804 
L 78.82928 -95.581267 
L 79.173127 -97.260196 
L 79.516973 -98.964094 
L 79.86082 -100.692192 
L 80.204667 -102.443677 
L 80.548514 -104.217697 
L 80.892361 -106.013364 
L 81.236208 -107.829751 
L 81.580055 -109.665894 
L 81.923902 -111.520796 
L 82.267749 -113.393423 
L 82.611596 -115.282711 
L 82.955443 -117.187562 
L 83.29929 -119.106849 
L 83.643137 -121.039414 
L 83.986984 -122.984072 
L 84.330831 -124.939612 
L 84.674678 -126.904797 
L 85.018525 -128.878365 
L 85.362371 -130.859034 
L 85.706218 -132.845498 
L 86.050065 -134.836433 
L 86.393912 -136.830497 
L 86.737759 -138.82633 
L 87.081606 -140.822555 
L 87.425453 -142.817784 
L 87.7693 -144.810615 
L 88.113147 -146.799634 
L 88.456994 -148.783419 
L 88.800841 -150.760538 
L 89.144688 -152.729554 
L 89.488535 -154.689022 
L 89.832382 -156.637495 
L 90.176229 -158.573525 
L 90.520076 -160.49566 
L 90.863923 -162.40245 
L 91.20777 -164.292449 
L 91.551616 -166.164212 
L 91.895463 -168.0163 
L 92.23931 -169.847283 
L 92.583157 -171.655735 
L 92.927004 -173.440244 
L 93.270851 -175.199408 
L 93.614698 -176.931838 
L 93.958545 -178.63616 
L 94.302392 -180.311017 
L 94.646239 -181.955069 
L 94.990086 -183.566996 
L 95.333933 -185.145501 
L 95.67778 -186.689307 
L 96.021627 -188.197166 
L 96.365474 -189.667852 
L 96.709321 -191.100172 
L 97.053168 -192.492958 
L 97.397014 -193.845077 
L 97.740861 -195.155429 
L 98.084708 -196.422947 
L 98.428555 -197.646604 
L 98.772402 -198.825408 
L 99.116249 -199.95841 
L 99.460096 -201.044701 
L 99.803943 -202.083415 
L 100.14779 -203.073733 
L 100.491637 -204.01488 
L 100.835484 -204.906131 
L 101.179331 -205.746809 
L 101.523178 -206.536289 
L 101.867025 -207.273997 
L 102.210872 -207.959413 
L 102.554719 -208.592071 
L 102.898566 -209.171564 
L 103.242413 -209.697537 
L 103.586259 -210.169697 
L 103.930106 -210.587808 
L 104.273953 -210.951694 
L 104.6178 -211.26124 
L 104.961647 -211.51639 
L 105.305494 -211.717152 
L 105.649341 -211.863595 
L 105.993188 -211.955849 
L 106.337035 -211.99411 
L 106.680882 -211.978631 
L 107.024729 -211.909732 
L 107.368576 -211.787794 
L 107.712423 -211.613258 
L 108.05627 -211.386629 
L 108.400117 -211.108471 
L 108.743964 -210.779409 
L 109.087811 -210.400126 
L 109.431657 -209.971365 
L 109.775504 -209.493924 
L 110.119351 -208.968659 
L 110.463198 -208.396478 
L 110.807045 -207.778345 
L 111.150892 -207.115271 
L 111.494739 -206.40832 
L 111.838586 -205.658601 
L 112.182433 -204.86727 
L 112.52628 -204.035526 
L 112.870127 -203.164607 
L 113.213974 -202.255793 
L 113.557821 -201.310397 
L 113.901668 -200.329768 
L 114.245515 -199.315283 
L 114.589362 -198.268349 
L 114.933209 -197.190397 
L 115.277055 -196.082883 
L 115.620902 -194.947279 
L 115.964749 -193.785075 
L 116.308596 -192.597774 
L 116.652443 -191.386889 
L 116.99629 -190.15394 
L 117.340137 -188.900451 
L 117.683984 -187.627946 
L 118.027831 -186.337948 
L 118.371678 -185.031974 
L 118.715525 -183.71153 
L 119.059372 -182.378112 
L 119.403219 -181.033201 
L 119.747066 -179.67826 
L 120.090913 -178.31473 
L 120.43476 -176.944028 
L 120.778607 -175.567546 
L 121.122454 -174.186643 
L 121.4663 -172.80265 
L 121.810147 -171.416859 
L 122.153994 -170.030526 
L 122.497841 -168.644868 
L 122.841688 -167.261059 
L 123.185535 -165.880229 
L 123.529382 -164.503462 
L 123.873229 -163.131791 
L 124.217076 -161.766204 
L 124.560923 -160.407632 
L 124.90477 -159.056957 
L 125.248617 -157.715005 
L 125.592464 -156.382546 
L 125.936311 -155.060294 
L 126.280158 -153.748906 
L 126.624005 -152.44898 
L 126.967852 -151.161058 
L 127.311698 -149.885619 
L 127.655545 -148.623087 
L 127.999392 -147.373825 
L 128.343239 -146.138139 
L 128.687086 -144.916275 
L 129.030933 -143.708422 
L 129.37478 -142.514713 
L 129.718627 -141.335223 
L 130.062474 -140.169975 
L 130.406321 -139.018935 
L 130.750168 -137.88202 
L 131.094015 -136.759095 
L 131.437862 -135.649975 
L 131.781709 -134.554429 
L 132.125556 -133.472183 
L 132.469403 -132.402917 
L 132.81325 -131.346273 
L 133.157097 -130.301854 
L 133.500943 -129.269228 
L 133.84479 -128.24793 
L 134.188637 -127.237465 
L 134.532484 -126.237312 
L 134.876331 -125.246926 
L 135.220178 -124.265738 
L 135.564025 -123.293165 
L 135.907872 -122.328607 
L 136.251719 -121.371454 
L 136.595566 -120.421084 
L 136.939413 -119.476875 
L 137.28326 -118.5382 
L 137.627107 -117.604432 
L 137.970954 -116.674951 
L 138.314801 -115.749144 
L 138.658648 -114.826408 
L 139.002495 -113.906154 
L 139.346341 -112.98781 
L 139.690188 -112.070822 
L 140.034035 -111.154661 
L 140.377882 -110.238819 
L 140.721729 -109.322818 
L 141.065576 -108.40621 
L 141.409423 -107.488578 
L 141.75327 -106.569538 
L 142.097117 -105.648744 
L 142.440964 -104.725885 
L 142.784811 -103.800691 
L 143.128658 -102.872931 
L 143.472505 -101.942417 
L 143.816352 -101.009001 
L 144.160199 -100.072581 
L 144.504046 -99.133096 
L 144.847893 -98.19053 
L 145.191739 -97.24491 
L 145.535586 -96.296307 
L 145.879433 -95.344836 
L 146.22328 -94.390654 
L 146.567127 -93.43396 
L 146.910974 -92.474993 
L 147.254821 -91.514034 
L 147.598668 -90.551401 
L 147.942515 -89.587448 
L 148.286362 -88.622566 
L 148.630209 -87.657178 
L 148.974056 -86.691738 
L 149.317903 -85.726731 
L 149.66175 -84.762667 
L 150.005597 -83.800081 
L 150.349444 -82.839531 
L 150.693291 -81.881592 
L 151.037138 -80.926859 
L 151.380984 -79.975939 
L 151.724831 -79.029451 
L 152.068678 -78.088023 
L 152.412525 -77.15229 
L 152.756372 -76.222888 
L 153.100219 -75.300456 
L 153.444066 -74.38563 
L 153.787913 -73.479042 
L 154.13176 -72.581314 
L 154.475607 -71.693063 
L 154.819454 -70.814891 
L 155.163301 -69.947385 
L 155.507148 -69.091119 
L 155.850995 -68.246644 
L 156.194842 -67.414494 
L 156.538689 -66.595179 
L 156.882536 -65.789186 
L 157.226382 -64.996975 
L 157.570229 -64.218981 
L 157.914076 -63.45561 
L 158.257923 -62.707238 
L 158.60177 -61.974212 
L 158.945617 -61.256849 
L 159.289464 -60.555431 
L 159.633311 -59.870212 
L 159.977158 -59.201413 
L 160.321005 -58.54922 
L 160.664852 -57.913789 
L 161.008699 -57.295245 
L 161.352546 -56.693678 
L 161.696393 -56.109147 
L 162.04024 -55.541683 
L 162.384087 -54.991282 
L 162.727934 -54.457914 
L 163.071781 -53.94152 
L 163.415627 -53.442009 
L 163.759474 -52.95927 
L 164.103321 -52.493159 
L 164.447168 -52.043514 
L 164.791015 -51.610144 
L 165.134862 -51.19284 
L 165.478709 -50.791371 
L 165.822556 -50.405487 
L 166.166403 -50.034917 
L 166.51025 -49.679378 
L 166.854097 -49.338569 
L 167.197944 -49.012177 
L 167.541791 -48.699873 
L 167.885638 -48.401322 
L 168.229485 -48.116175 
L 168.573332 -47.844079 
L 168.917179 -47.584669 
L 169.261025 -47.337579 
L 169.604872 -47.102435 
L 169.948719 -46.878863 
L 170.292566 -46.666485 
L 170.636413 -46.464922 
L 170.98026 -46.273797 
L 171.324107 -46.092731 
L 171.667954 -45.92135 
L 172.011801 -45.759281 
L 172.355648 -45.606157 
L 172.699495 -45.461613 
L 173.043342 -45.325292 
L 173.387189 -45.19684 
L 173.731036 -45.075912 
L 174.074883 -44.96217 
L 174.41873 -44.855281 
L 174.762577 -44.754922 
L 175.106423 -44.66078 
L 175.45027 -44.572547 
L 175.794117 -44.489926 
L 176.137964 -44.412629 
L 176.481811 -44.340378 
L 176.825658 -44.272903 
L 177.169505 -44.209944 
L 177.513352 -44.151252 
L 177.857199 -44.096585 
L 178.201046 -44.045713 
L 178.544893 -43.998414 
L 178.88874 -43.954476 
L 179.232587 -43.913696 
L 179.576434 -43.875881 
L 179.920281 -43.840847 
L 180.264128 -43.808416 
L 180.607975 -43.778423 
L 180.951822 -43.750708 
L 181.295668 -43.725121 
L 181.639515 -43.701519 
L 181.983362 -43.679768 
L 182.327209 -43.659739 
L 182.671056 -43.641313 
L 183.014903 -43.624377 
L 183.35875 -43.608822 
L 183.702597 -43.59455 
L 183.702597 -43.451266 
L 183.702597 -43.451266 
L 183.35875 -43.451266 
L 183.014903 -43.451266 
L 182.671056 -43.451266 
L 182.327209 -43.451266 
L 181.983362 -43.451266 
L 181.639515 -43.451266 
L 181.295668 -43.451266 
L 180.951822 -43.451266 
L 180.607975 -43.451266 
L 180.264128 -43.451266 
L 179.920281 -43.451266 
L 179.576434 -43.451266 
L 179.232587 -43.451266 
L 178.88874 -43.451266 
L 178.544893 -43.451266 
L 178.201046 -43.451266 
L 177.857199 -43.451266 
L 177.513352 -43.451266 
L 177.169505 -43.451266 
L 176.825658 -43.451266 
L 176.481811 -43.451266 
L 176.137964 -43.451266 
L 175.794117 -43.451266 
L 175.45027 -43.451266 
L 175.106423 -43.451266 
L 174.762577 -43.451266 
L 174.41873 -43.451266 
L 174.074883 -43.451266 
L 173.731036 -43.451266 
L 173.387189 -43.451266 
L 173.043342 -43.451266 
L 172.699495 -43.451266 
L 172.355648 -43.451266 
L 172.011801 -43.451266 
L 171.667954 -43.451266 
L 171.324107 -43.451266 
L 170.98026 -43.451266 
L 170.636413 -43.451266 
L 170.292566 -43.451266 
L 169.948719 -43.451266 
L 169.604872 -43.451266 
L 169.261025 -43.451266 
L 168.917179 -43.451266 
L 168.573332 -43.451266 
L 168.229485 -43.451266 
L 167.885638 -43.451266 
L 167.541791 -43.451266 
L 167.197944 -43.451266 
L 166.854097 -43.451266 
L 166.51025 -43.451266 
L 166.166403 -43.451266 
L 165.822556 -43.451266 
L 165.478709 -43.451266 
L 165.134862 -43.451266 
L 164.791015 -43.451266 
L 164.447168 -43.451266 
L 164.103321 -43.451266 
L 163.759474 -43.451266 
L 163.415627 -43.451266 
L 163.071781 -43.451266 
L 162.727934 -43.451266 
L 162.384087 -43.451266 
L 162.04024 -43.451266 
L 161.696393 -43.451266 
L 161.352546 -43.451266 
L 161.008699 -43.451266 
L 160.664852 -43.451266 
L 160.321005 -43.451266 
L 159.977158 -43.451266 
L 159.633311 -43.451266 
L 159.289464 -43.451266 
L 158.945617 -43.451266 
L 158.60177 -43.451266 
L 158.257923 -43.451266 
L 157.914076 -43.451266 
L 157.570229 -43.451266 
L 157.226382 -43.451266 
L 156.882536 -43.451266 
L 156.538689 -43.451266 
L 156.194842 -43.451266 
L 155.850995 -43.451266 
L 155.507148 -43.451266 
L 155.163301 -43.451266 
L 154.819454 -43.451266 
L 154.475607 -43.451266 
L 154.13176 -43.451266 
L 153.787913 -43.451266 
L 153.444066 -43.451266 
L 153.100219 -43.451266 
L 152.756372 -43.451266 
L 152.412525 -43.451266 
L 152.068678 -43.451266 
L 151.724831 -43.451266 
L 151.380984 -43.451266 
L 151.037138 -43.451266 
L 150.693291 -43.451266 
L 150.349444 -43.451266 
L 150.005597 -43.451266 
L 149.66175 -43.451266 
L 149.317903 -43.451266 
L 148.974056 -43.451266 
L 148.630209 -43.451266 
L 148.286362 -43.451266 
L 147.942515 -43.451266 
L 147.598668 -43.451266 
L 147.254821 -43.451266 
L 146.910974 -43.451266 
L 146.567127 -43.451266 
L 146.22328 -43.451266 
L 145.879433 -43.451266 
L 145.535586 -43.451266 
L 145.191739 -43.451266 
L 144.847893 -43.451266 
L 144.504046 -43.451266 
L 144.160199 -43.451266 
L 143.816352 -43.451266 
L 143.472505 -43.451266 
L 143.128658 -43.451266 
L 142.784811 -43.451266 
L 142.440964 -43.451266 
L 142.097117 -43.451266 
L 141.75327 -43.451266 
L 141.409423 -43.451266 
L 141.065576 -43.451266 
L 140.721729 -43.451266 
L 140.377882 -43.451266 
L 140.034035 -43.451266 
L 139.690188 -43.451266 
L 139.346341 -43.451266 
L 139.002495 -43.451266 
L 138.658648 -43.451266 
L 138.314801 -43.451266 
L 137.970954 -43.451266 
L 137.627107 -43.451266 
L 137.28326 -43.451266 
L 136.939413 -43.451266 
L 136.595566 -43.451266 
L 136.251719 -43.451266 
L 135.907872 -43.451266 
L 135.564025 -43.451266 
L 135.220178 -43.451266 
L 134.876331 -43.451266 
L 134.532484 -43.451266 
L 134.188637 -43.451266 
L 133.84479 -43.451266 
L 133.500943 -43.451266 
L 133.157097 -43.451266 
L 132.81325 -43.451266 
L 132.469403 -43.451266 
L 132.125556 -43.451266 
L 131.781709 -43.451266 
L 131.437862 -43.451266 
L 131.094015 -43.451266 
L 130.750168 -43.451266 
L 130.406321 -43.451266 
L 130.062474 -43.451266 
L 129.718627 -43.451266 
L 129.37478 -43.451266 
L 129.030933 -43.451266 
L 128.687086 -43.451266 
L 128.343239 -43.451266 
L 127.999392 -43.451266 
L 127.655545 -43.451266 
L 127.311698 -43.451266 
L 126.967852 -43.451266 
L 126.624005 -43.451266 
L 126.280158 -43.451266 
L 125.936311 -43.451266 
L 125.592464 -43.451266 
L 125.248617 -43.451266 
L 124.90477 -43.451266 
L 124.560923 -43.451266 
L 124.217076 -43.451266 
L 123.873229 -43.451266 
L 123.529382 -43.451266 
L 123.185535 -43.451266 
L 122.841688 -43.451266 
L 122.497841 -43.451266 
L 122.153994 -43.451266 
L 121.810147 -43.451266 
L 121.4663 -43.451266 
L 121.122454 -43.451266 
L 120.778607 -43.451266 
L 120.43476 -43.451266 
L 120.090913 -43.451266 
L 119.747066 -43.451266 
L 119.403219 -43.451266 
L 119.059372 -43.451266 
L 118.715525 -43.451266 
L 118.371678 -43.451266 
L 118.027831 -43.451266 
L 117.683984 -43.451266 
L 117.340137 -43.451266 
L 116.99629 -43.451266 
L 116.652443 -43.451266 
L 116.308596 -43.451266 
L 115.964749 -43.451266 
L 115.620902 -43.451266 
L 115.277055 -43.451266 
L 114.933209 -43.451266 
L 114.589362 -43.451266 
L 114.245515 -43.451266 
L 113.901668 -43.451266 
L 113.557821 -43.451266 
L 113.213974 -43.451266 
L 112.870127 -43.451266 
L 112.52628 -43.451266 
L 112.182433 -43.451266 
L 111.838586 -43.451266 
L 111.494739 -43.451266 
L 111.150892 -43.451266 
L 110.807045 -43.451266 
L 110.463198 -43.451266 
L 110.119351 -43.451266 
L 109.775504 -43.451266 
L 109.431657 -43.451266 
L 109.087811 -43.451266 
L 108.743964 -43.451266 
L 108.400117 -43.451266 
L 108.05627 -43.451266 
L 107.712423 -43.451266 
L 107.368576 -43.451266 
L 107.024729 -43.451266 
L 106.680882 -43.451266 
L 106.337035 -43.451266 
L 105.993188 -43.451266 
L 105.649341 -43.451266 
L 105.305494 -43.451266 
L 104.961647 -43.451266 
L 104.6178 -43.451266 
L 104.273953 -43.451266 
L 103.930106 -43.451266 
L 103.586259 -43.451266 
L 103.242413 -43.451266 
L 102.898566 -43.451266 
L 102.554719 -43.451266 
L 102.210872 -43.451266 
L 101.867025 -43.451266 
L 101.523178 -43.451266 
L 101.179331 -43.451266 
L 100.835484 -43.451266 
L 100.491637 -43.451266 
L 100.14779 -43.451266 
L 99.803943 -43.451266 
L 99.460096 -43.451266 
L 99.116249 -43.451266 
L 98.772402 -43.451266 
L 98.428555 -43.451266 
L 98.084708 -43.451266 
L 97.740861 -43.451266 
L 97.397014 -43.451266 
L 97.053168 -43.451266 
L 96.709321 -43.451266 
L 96.365474 -43.451266 
L 96.021627 -43.451266 
L 95.67778 -43.451266 
L 95.333933 -43.451266 
L 94.990086 -43.451266 
L 94.646239 -43.451266 
L 94.302392 -43.451266 
L 93.958545 -43.451266 
L 93.614698 -43.451266 
L 93.270851 -43.451266 
L 92.927004 -43.451266 
L 92.583157 -43.451266 
L 92.23931 -43.451266 
L 91.895463 -43.451266 
L 91.551616 -43.451266 
L 91.20777 -43.451266 
L 90.863923 -43.451266 
L 90.520076 -43.451266 
L 90.176229 -43.451266 
L 89.832382 -43.451266 
L 89.488535 -43.451266 
L 89.144688 -43.451266 
L 88.800841 -43.451266 
L 88.456994 -43.451266 
L 88.113147 -43.451266 
L 87.7693 -43.451266 
L 87.425453 -43.451266 
L 87.081606 -43.451266 
L 86.737759 -43.451266 
L 86.393912 -43.451266 
L 86.050065 -43.451266 
L 85.706218 -43.451266 
L 85.362371 -43.451266 
L 85.018525 -43.451266 
L 84.674678 -43.451266 
L 84.330831 -43.451266 
L 83.986984 -43.451266 
L 83.643137 -43.451266 
L 83.29929 -43.451266 
L 82.955443 -43.451266 
L 82.611596 -43.451266 
L 82.267749 -43.451266 
L 81.923902 -43.451266 
L 81.580055 -43.451266 
L 81.236208 -43.451266 
L 80.892361 -43.451266 
L 80.548514 -43.451266 
L 80.204667 -43.451266 
L 79.86082 -43.451266 
L 79.516973 -43.451266 
L 79.173127 -43.451266 
L 78.82928 -43.451266 
L 78.485433 -43.451266 
L 78.141586 -43.451266 
L 77.797739 -43.451266 
L 77.453892 -43.451266 
L 77.110045 -43.451266 
L 76.766198 -43.451266 
L 76.422351 -43.451266 
L 76.078504 -43.451266 
L 75.734657 -43.451266 
L 75.39081 -43.451266 
L 75.046963 -43.451266 
L 74.703116 -43.451266 
L 74.359269 -43.451266 
L 74.015422 -43.451266 
L 73.671575 -43.451266 
L 73.327729 -43.451266 
L 72.983882 -43.451266 
L 72.640035 -43.451266 
L 72.296188 -43.451266 
L 71.952341 -43.451266 
L 71.608494 -43.451266 
L 71.264647 -43.451266 
L 70.9208 -43.451266 
L 70.576953 -43.451266 
L 70.233106 -43.451266 
L 69.889259 -43.451266 
L 69.545412 -43.451266 
L 69.201565 -43.451266 
L 68.857718 -43.451266 
L 68.513871 -43.451266 
L 68.170024 -43.451266 
L 67.826177 -43.451266 
L 67.48233 -43.451266 
L 67.138484 -43.451266 
L 66.794637 -43.451266 
L 66.45079 -43.451266 
L 66.106943 -43.451266 
L 65.763096 -43.451266 
L 65.419249 -43.451266 
L 65.075402 -43.451266 
L 64.731555 -43.451266 
L 64.387708 -43.451266 
L 64.043861 -43.451266 
L 63.700014 -43.451266 
L 63.356167 -43.451266 
L 63.01232 -43.451266 
L 62.668473 -43.451266 
L 62.324626 -43.451266 
L 61.980779 -43.451266 
L 61.636932 -43.451266 
L 61.293086 -43.451266 
L 60.949239 -43.451266 
L 60.605392 -43.451266 
L 60.261545 -43.451266 
L 59.917698 -43.451266 
L 59.573851 -43.451266 
L 59.230004 -43.451266 
L 58.886157 -43.451266 
L 58.54231 -43.451266 
L 58.198463 -43.451266 
L 57.854616 -43.451266 
L 57.510769 -43.451266 
L 57.166922 -43.451266 
L 56.823075 -43.451266 
L 56.479228 -43.451266 
L 56.135381 -43.451266 
L 55.791534 -43.451266 
L 55.447687 -43.451266 
L 55.103841 -43.451266 
L 54.759994 -43.451266 
L 54.416147 -43.451266 
L 54.0723 -43.451266 
L 53.728453 -43.451266 
L 53.384606 -43.451266 
L 53.040759 -43.451266 
L 52.696912 -43.451266 
L 52.353065 -43.451266 
L 52.009218 -43.451266 
L 51.665371 -43.451266 
L 51.321524 -43.451266 
L 50.977677 -43.451266 
L 50.63383 -43.451266 
L 50.289983 -43.451266 
L 49.946136 -43.451266 
L 49.602289 -43.451266 
L 49.258443 -43.451266 
L 48.914596 -43.451266 
L 48.570749 -43.451266 
L 48.226902 -43.451266 
L 47.883055 -43.451266 
L 47.539208 -43.451266 
L 47.195361 -43.451266 
L 46.851514 -43.451266 
L 46.507667 -43.451266 
z
"/>
    </defs>
    <g clip-path="url(#p7e964698a8)">
     <use xlink:href="#m61a323429f" x="0" y="259.79976" style="fill: #d55e00; fill-opacity: 0.3"/>
    </g>
   </g>
   <g id="FillBetweenPolyCollection_2">
    <defs>
     <path id="mcfc927c09b" d="M 122.120153 -43.451266 
L 122.120153 -54.17 
L 122.562674 -54.462126 
L 123.005195 -54.759665 
L 123.447715 -55.062633 
L 123.890236 -55.371044 
L 124.332757 -55.684908 
L 124.775278 -56.004235 
L 125.217799 -56.32903 
L 125.66032 -56.659294 
L 126.102841 -56.995027 
L 126.545362 -57.336225 
L 126.987883 -57.682882 
L 127.430404 -58.034988 
L 127.872925 -58.392529 
L 128.315446 -58.755489 
L 128.757967 -59.123849 
L 129.200488 -59.497586 
L 129.643009 -59.876674 
L 130.08553 -60.261082 
L 130.52805 -60.650779 
L 130.970571 -61.045728 
L 131.413092 -61.44589 
L 131.855613 -61.851221 
L 132.298134 -62.261675 
L 132.740655 -62.677202 
L 133.183176 -63.097749 
L 133.625697 -63.523259 
L 134.068218 -63.953672 
L 134.510739 -64.388924 
L 134.95326 -64.828949 
L 135.395781 -65.273676 
L 135.838302 -65.723031 
L 136.280823 -66.176938 
L 136.723344 -66.635315 
L 137.165865 -67.09808 
L 137.608385 -67.565146 
L 138.050906 -68.036422 
L 138.493427 -68.511815 
L 138.935948 -68.991228 
L 139.378469 -69.474563 
L 139.82099 -69.961716 
L 140.263511 -70.452583 
L 140.706032 -70.947054 
L 141.148553 -71.44502 
L 141.591074 -71.946364 
L 142.033595 -72.450972 
L 142.476116 -72.958723 
L 142.918637 -73.469496 
L 143.361158 -73.983166 
L 143.803679 -74.499606 
L 144.2462 -75.018687 
L 144.68872 -75.540278 
L 145.131241 -76.064246 
L 145.573762 -76.590454 
L 146.016283 -77.118765 
L 146.458804 -77.649039 
L 146.901325 -78.181136 
L 147.343846 -78.714912 
L 147.786367 -79.250224 
L 148.228888 -79.786924 
L 148.671409 -80.324866 
L 149.11393 -80.863901 
L 149.556451 -81.403879 
L 149.998972 -81.94465 
L 150.441493 -82.486061 
L 150.884014 -83.027961 
L 151.326535 -83.570196 
L 151.769055 -84.112611 
L 152.211576 -84.655054 
L 152.654097 -85.197368 
L 153.096618 -85.739398 
L 153.539139 -86.280991 
L 153.98166 -86.821989 
L 154.424181 -87.362238 
L 154.866702 -87.901583 
L 155.309223 -88.43987 
L 155.751744 -88.976942 
L 156.194265 -89.512648 
L 156.636786 -90.046833 
L 157.079307 -90.579344 
L 157.521828 -91.11003 
L 157.964349 -91.638741 
L 158.40687 -92.165325 
L 158.84939 -92.689634 
L 159.291911 -93.211522 
L 159.734432 -93.73084 
L 160.176953 -94.247445 
L 160.619474 -94.761193 
L 161.061995 -95.271942 
L 161.504516 -95.779553 
L 161.947037 -96.283886 
L 162.389558 -96.784806 
L 162.832079 -97.282177 
L 163.2746 -97.775867 
L 163.717121 -98.265745 
L 164.159642 -98.751684 
L 164.602163 -99.233556 
L 165.044684 -99.711239 
L 165.487205 -100.18461 
L 165.929725 -100.65355 
L 166.372246 -101.117943 
L 166.814767 -101.577675 
L 167.257288 -102.032633 
L 167.699809 -102.48271 
L 168.14233 -102.927799 
L 168.584851 -103.367796 
L 169.027372 -103.802601 
L 169.469893 -104.232116 
L 169.912414 -104.656246 
L 170.354935 -105.074899 
L 170.797456 -105.487985 
L 171.239977 -105.895418 
L 171.682498 -106.297115 
L 172.125019 -106.692995 
L 172.56754 -107.082981 
L 173.01006 -107.466999 
L 173.452581 -107.844977 
L 173.895102 -108.216846 
L 174.337623 -108.582543 
L 174.780144 -108.942005 
L 175.222665 -109.295171 
L 175.665186 -109.641988 
L 176.107707 -109.9824 
L 176.550228 -110.316359 
L 176.992749 -110.643818 
L 177.43527 -110.964732 
L 177.877791 -111.279061 
L 178.320312 -111.586767 
L 178.762833 -111.887815 
L 179.205354 -112.182174 
L 179.647875 -112.469814 
L 180.090395 -112.750709 
L 180.532916 -113.024837 
L 180.975437 -113.292177 
L 181.417958 -113.552711 
L 181.860479 -113.806426 
L 182.303 -114.053309 
L 182.745521 -114.293353 
L 183.188042 -114.526549 
L 183.630563 -114.752896 
L 184.073084 -114.972391 
L 184.515605 -115.185038 
L 184.958126 -115.390839 
L 185.400647 -115.589803 
L 185.843168 -115.781938 
L 186.285689 -115.967256 
L 186.72821 -116.145771 
L 187.17073 -116.317501 
L 187.613251 -116.482463 
L 188.055772 -116.640679 
L 188.498293 -116.792173 
L 188.940814 -116.93697 
L 189.383335 -117.075097 
L 189.825856 -117.206585 
L 190.268377 -117.331465 
L 190.710898 -117.44977 
L 191.153419 -117.561537 
L 191.59594 -117.666803 
L 192.038461 -117.765607 
L 192.480982 -117.857991 
L 192.923503 -117.943996 
L 193.366024 -118.023668 
L 193.808545 -118.097052 
L 194.251065 -118.164196 
L 194.693586 -118.225149 
L 195.136107 -118.279961 
L 195.578628 -118.328685 
L 196.021149 -118.371372 
L 196.46367 -118.408077 
L 196.906191 -118.438857 
L 197.348712 -118.463766 
L 197.791233 -118.482864 
L 198.233754 -118.496209 
L 198.676275 -118.50386 
L 199.118796 -118.505878 
L 199.561317 -118.502324 
L 200.003838 -118.493261 
L 200.446359 -118.478751 
L 200.88888 -118.458859 
L 201.3314 -118.433647 
L 201.773921 -118.403181 
L 202.216442 -118.367527 
L 202.658963 -118.326749 
L 203.101484 -118.280914 
L 203.544005 -118.230087 
L 203.986526 -118.174336 
L 204.429047 -118.113728 
L 204.871568 -118.048328 
L 205.314089 -117.978205 
L 205.75661 -117.903425 
L 206.199131 -117.824055 
L 206.641652 -117.740162 
L 207.084173 -117.651814 
L 207.526694 -117.559075 
L 207.969215 -117.462014 
L 208.411735 -117.360695 
L 208.854256 -117.255185 
L 209.296777 -117.145548 
L 209.739298 -117.03185 
L 210.181819 -116.914155 
L 210.62434 -116.792526 
L 211.066861 -116.667027 
L 211.509382 -116.53772 
L 211.951903 -116.404667 
L 212.394424 -116.267929 
L 212.836945 -116.127566 
L 213.279466 -115.983637 
L 213.721987 -115.836201 
L 214.164508 -115.685315 
L 214.607029 -115.531035 
L 215.04955 -115.373418 
L 215.49207 -115.212518 
L 215.934591 -115.048387 
L 216.377112 -114.881078 
L 216.819633 -114.710643 
L 217.262154 -114.53713 
L 217.704675 -114.360588 
L 218.147196 -114.181065 
L 218.589717 -113.998606 
L 219.032238 -113.813256 
L 219.474759 -113.625058 
L 219.91728 -113.434055 
L 220.359801 -113.240286 
L 220.802322 -113.04379 
L 221.244843 -112.844606 
L 221.687364 -112.642768 
L 222.129885 -112.438313 
L 222.572405 -112.231272 
L 223.014926 -112.021677 
L 223.457447 -111.809558 
L 223.899968 -111.594945 
L 224.342489 -111.377863 
L 224.78501 -111.158339 
L 225.227531 -110.936396 
L 225.670052 -110.712056 
L 226.112573 -110.485341 
L 226.555094 -110.25627 
L 226.997615 -110.024861 
L 227.440136 -109.791129 
L 227.882657 -109.55509 
L 228.325178 -109.316758 
L 228.767699 -109.076143 
L 229.210219 -108.833257 
L 229.65274 -108.588109 
L 230.095261 -108.340707 
L 230.537782 -108.091056 
L 230.980303 -107.839162 
L 231.422824 -107.585028 
L 231.865345 -107.328658 
L 232.307866 -107.070052 
L 232.750387 -106.809211 
L 233.192908 -106.546134 
L 233.635429 -106.280818 
L 234.07795 -106.013262 
L 234.520471 -105.743459 
L 234.962992 -105.471407 
L 235.405513 -105.197098 
L 235.848034 -104.920527 
L 236.290554 -104.641685 
L 236.733075 -104.360566 
L 237.175596 -104.07716 
L 237.618117 -103.791458 
L 238.060638 -103.50345 
L 238.503159 -103.213126 
L 238.94568 -102.920476 
L 239.388201 -102.625489 
L 239.830722 -102.328154 
L 240.273243 -102.02846 
L 240.715764 -101.726395 
L 241.158285 -101.421949 
L 241.600806 -101.11511 
L 242.043327 -100.805868 
L 242.485848 -100.494212 
L 242.928369 -100.180131 
L 243.370889 -99.863616 
L 243.81341 -99.544657 
L 244.255931 -99.223246 
L 244.698452 -98.899373 
L 245.140973 -98.573032 
L 245.583494 -98.244216 
L 246.026015 -97.912919 
L 246.468536 -97.579136 
L 246.911057 -97.242863 
L 247.353578 -96.904097 
L 247.796099 -96.562838 
L 248.23862 -96.219084 
L 248.681141 -95.872836 
L 249.123662 -95.524098 
L 249.566183 -95.172872 
L 250.008704 -94.819164 
L 250.451224 -94.462981 
L 250.893745 -94.104332 
L 251.336266 -93.743227 
L 251.778787 -93.379679 
L 252.221308 -93.0137 
L 252.663829 -92.645307 
L 253.10635 -92.274518 
L 253.548871 -91.901352 
L 253.991392 -91.525832 
L 254.433913 -91.14798 
L 254.876434 -90.767823 
L 255.318955 -90.385389 
L 255.761476 -90.000707 
L 256.203997 -89.613812 
L 256.646518 -89.224736 
L 257.089039 -88.833517 
L 257.531559 -88.440195 
L 257.97408 -88.044809 
L 258.416601 -87.647405 
L 258.859122 -87.248027 
L 259.301643 -86.846725 
L 259.744164 -86.443548 
L 260.186685 -86.038549 
L 260.629206 -85.631784 
L 261.071727 -85.22331 
L 261.514248 -84.813186 
L 261.956769 -84.401473 
L 262.39929 -83.988236 
L 262.841811 -83.573541 
L 263.284332 -83.157456 
L 263.726853 -82.740051 
L 264.169374 -82.321398 
L 264.611894 -81.901572 
L 265.054415 -81.480649 
L 265.496936 -81.058707 
L 265.939457 -80.635826 
L 266.381978 -80.212087 
L 266.824499 -79.787574 
L 267.26702 -79.362372 
L 267.709541 -78.936568 
L 268.152062 -78.51025 
L 268.594583 -78.083508 
L 269.037104 -77.656431 
L 269.479625 -77.229114 
L 269.922146 -76.801648 
L 270.364667 -76.374129 
L 270.807188 -75.946652 
L 271.249709 -75.519314 
L 271.692229 -75.092212 
L 272.13475 -74.665443 
L 272.577271 -74.239107 
L 273.019792 -73.813303 
L 273.462313 -73.388131 
L 273.904834 -72.96369 
L 274.347355 -72.540082 
L 274.789876 -72.117406 
L 275.232397 -71.695764 
L 275.674918 -71.275255 
L 276.117439 -70.855981 
L 276.55996 -70.438041 
L 277.002481 -70.021536 
L 277.445002 -69.606564 
L 277.887523 -69.193226 
L 278.330044 -68.781618 
L 278.772564 -68.371839 
L 279.215085 -67.963985 
L 279.657606 -67.558153 
L 280.100127 -67.154437 
L 280.542648 -66.75293 
L 280.985169 -66.353726 
L 281.42769 -65.956915 
L 281.870211 -65.562587 
L 282.312732 -65.170832 
L 282.755253 -64.781735 
L 283.197774 -64.395381 
L 283.640295 -64.011856 
L 284.082816 -63.631239 
L 284.525337 -63.253612 
L 284.967858 -62.879052 
L 285.410379 -62.507635 
L 285.852899 -62.139436 
L 286.29542 -61.774526 
L 286.737941 -61.412974 
L 287.180462 -61.05485 
L 287.622983 -60.700216 
L 288.065504 -60.349138 
L 288.508025 -60.001675 
L 288.950546 -59.657885 
L 289.393067 -59.317824 
L 289.835588 -58.981546 
L 290.278109 -58.649101 
L 290.72063 -58.320537 
L 291.163151 -57.9959 
L 291.605672 -57.675234 
L 292.048193 -57.358578 
L 292.490714 -57.04597 
L 292.933234 -56.737447 
L 293.375755 -56.433039 
L 293.818276 -56.132779 
L 294.260797 -55.836692 
L 294.703318 -55.544803 
L 295.145839 -55.257135 
L 295.58836 -54.973708 
L 296.030881 -54.694538 
L 296.473402 -54.419639 
L 296.915923 -54.149024 
L 297.358444 -53.882702 
L 297.800965 -53.620679 
L 298.243486 -53.36296 
L 298.686007 -53.109546 
L 298.686007 -43.451266 
L 298.686007 -43.451266 
L 298.243486 -43.451266 
L 297.800965 -43.451266 
L 297.358444 -43.451266 
L 296.915923 -43.451266 
L 296.473402 -43.451266 
L 296.030881 -43.451266 
L 295.58836 -43.451266 
L 295.145839 -43.451266 
L 294.703318 -43.451266 
L 294.260797 -43.451266 
L 293.818276 -43.451266 
L 293.375755 -43.451266 
L 292.933234 -43.451266 
L 292.490714 -43.451266 
L 292.048193 -43.451266 
L 291.605672 -43.451266 
L 291.163151 -43.451266 
L 290.72063 -43.451266 
L 290.278109 -43.451266 
L 289.835588 -43.451266 
L 289.393067 -43.451266 
L 288.950546 -43.451266 
L 288.508025 -43.451266 
L 288.065504 -43.451266 
L 287.622983 -43.451266 
L 287.180462 -43.451266 
L 286.737941 -43.451266 
L 286.29542 -43.451266 
L 285.852899 -43.451266 
L 285.410379 -43.451266 
L 284.967858 -43.451266 
L 284.525337 -43.451266 
L 284.082816 -43.451266 
L 283.640295 -43.451266 
L 283.197774 -43.451266 
L 282.755253 -43.451266 
L 282.312732 -43.451266 
L 281.870211 -43.451266 
L 281.42769 -43.451266 
L 280.985169 -43.451266 
L 280.542648 -43.451266 
L 280.100127 -43.451266 
L 279.657606 -43.451266 
L 279.215085 -43.451266 
L 278.772564 -43.451266 
L 278.330044 -43.451266 
L 277.887523 -43.451266 
L 277.445002 -43.451266 
L 277.002481 -43.451266 
L 276.55996 -43.451266 
L 276.117439 -43.451266 
L 275.674918 -43.451266 
L 275.232397 -43.451266 
L 274.789876 -43.451266 
L 274.347355 -43.451266 
L 273.904834 -43.451266 
L 273.462313 -43.451266 
L 273.019792 -43.451266 
L 272.577271 -43.451266 
L 272.13475 -43.451266 
L 271.692229 -43.451266 
L 271.249709 -43.451266 
L 270.807188 -43.451266 
L 270.364667 -43.451266 
L 269.922146 -43.451266 
L 269.479625 -43.451266 
L 269.037104 -43.451266 
L 268.594583 -43.451266 
L 268.152062 -43.451266 
L 267.709541 -43.451266 
L 267.26702 -43.451266 
L 266.824499 -43.451266 
L 266.381978 -43.451266 
L 265.939457 -43.451266 
L 265.496936 -43.451266 
L 265.054415 -43.451266 
L 264.611894 -43.451266 
L 264.169374 -43.451266 
L 263.726853 -43.451266 
L 263.284332 -43.451266 
L 262.841811 -43.451266 
L 262.39929 -43.451266 
L 261.956769 -43.451266 
L 261.514248 -43.451266 
L 261.071727 -43.451266 
L 260.629206 -43.451266 
L 260.186685 -43.451266 
L 259.744164 -43.451266 
L 259.301643 -43.451266 
L 258.859122 -43.451266 
L 258.416601 -43.451266 
L 257.97408 -43.451266 
L 257.531559 -43.451266 
L 257.089039 -43.451266 
L 256.646518 -43.451266 
L 256.203997 -43.451266 
L 255.761476 -43.451266 
L 255.318955 -43.451266 
L 254.876434 -43.451266 
L 254.433913 -43.451266 
L 253.991392 -43.451266 
L 253.548871 -43.451266 
L 253.10635 -43.451266 
L 252.663829 -43.451266 
L 252.221308 -43.451266 
L 251.778787 -43.451266 
L 251.336266 -43.451266 
L 250.893745 -43.451266 
L 250.451224 -43.451266 
L 250.008704 -43.451266 
L 249.566183 -43.451266 
L 249.123662 -43.451266 
L 248.681141 -43.451266 
L 248.23862 -43.451266 
L 247.796099 -43.451266 
L 247.353578 -43.451266 
L 246.911057 -43.451266 
L 246.468536 -43.451266 
L 246.026015 -43.451266 
L 245.583494 -43.451266 
L 245.140973 -43.451266 
L 244.698452 -43.451266 
L 244.255931 -43.451266 
L 243.81341 -43.451266 
L 243.370889 -43.451266 
L 242.928369 -43.451266 
L 242.485848 -43.451266 
L 242.043327 -43.451266 
L 241.600806 -43.451266 
L 241.158285 -43.451266 
L 240.715764 -43.451266 
L 240.273243 -43.451266 
L 239.830722 -43.451266 
L 239.388201 -43.451266 
L 238.94568 -43.451266 
L 238.503159 -43.451266 
L 238.060638 -43.451266 
L 237.618117 -43.451266 
L 237.175596 -43.451266 
L 236.733075 -43.451266 
L 236.290554 -43.451266 
L 235.848034 -43.451266 
L 235.405513 -43.451266 
L 234.962992 -43.451266 
L 234.520471 -43.451266 
L 234.07795 -43.451266 
L 233.635429 -43.451266 
L 233.192908 -43.451266 
L 232.750387 -43.451266 
L 232.307866 -43.451266 
L 231.865345 -43.451266 
L 231.422824 -43.451266 
L 230.980303 -43.451266 
L 230.537782 -43.451266 
L 230.095261 -43.451266 
L 229.65274 -43.451266 
L 229.210219 -43.451266 
L 228.767699 -43.451266 
L 228.325178 -43.451266 
L 227.882657 -43.451266 
L 227.440136 -43.451266 
L 226.997615 -43.451266 
L 226.555094 -43.451266 
L 226.112573 -43.451266 
L 225.670052 -43.451266 
L 225.227531 -43.451266 
L 224.78501 -43.451266 
L 224.342489 -43.451266 
L 223.899968 -43.451266 
L 223.457447 -43.451266 
L 223.014926 -43.451266 
L 222.572405 -43.451266 
L 222.129885 -43.451266 
L 221.687364 -43.451266 
L 221.244843 -43.451266 
L 220.802322 -43.451266 
L 220.359801 -43.451266 
L 219.91728 -43.451266 
L 219.474759 -43.451266 
L 219.032238 -43.451266 
L 218.589717 -43.451266 
L 218.147196 -43.451266 
L 217.704675 -43.451266 
L 217.262154 -43.451266 
L 216.819633 -43.451266 
L 216.377112 -43.451266 
L 215.934591 -43.451266 
L 215.49207 -43.451266 
L 215.04955 -43.451266 
L 214.607029 -43.451266 
L 214.164508 -43.451266 
L 213.721987 -43.451266 
L 213.279466 -43.451266 
L 212.836945 -43.451266 
L 212.394424 -43.451266 
L 211.951903 -43.451266 
L 211.509382 -43.451266 
L 211.066861 -43.451266 
L 210.62434 -43.451266 
L 210.181819 -43.451266 
L 209.739298 -43.451266 
L 209.296777 -43.451266 
L 208.854256 -43.451266 
L 208.411735 -43.451266 
L 207.969215 -43.451266 
L 207.526694 -43.451266 
L 207.084173 -43.451266 
L 206.641652 -43.451266 
L 206.199131 -43.451266 
L 205.75661 -43.451266 
L 205.314089 -43.451266 
L 204.871568 -43.451266 
L 204.429047 -43.451266 
L 203.986526 -43.451266 
L 203.544005 -43.451266 
L 203.101484 -43.451266 
L 202.658963 -43.451266 
L 202.216442 -43.451266 
L 201.773921 -43.451266 
L 201.3314 -43.451266 
L 200.88888 -43.451266 
L 200.446359 -43.451266 
L 200.003838 -43.451266 
L 199.561317 -43.451266 
L 199.118796 -43.451266 
L 198.676275 -43.451266 
L 198.233754 -43.451266 
L 197.791233 -43.451266 
L 197.348712 -43.451266 
L 196.906191 -43.451266 
L 196.46367 -43.451266 
L 196.021149 -43.451266 
L 195.578628 -43.451266 
L 195.136107 -43.451266 
L 194.693586 -43.451266 
L 194.251065 -43.451266 
L 193.808545 -43.451266 
L 193.366024 -43.451266 
L 192.923503 -43.451266 
L 192.480982 -43.451266 
L 192.038461 -43.451266 
L 191.59594 -43.451266 
L 191.153419 -43.451266 
L 190.710898 -43.451266 
L 190.268377 -43.451266 
L 189.825856 -43.451266 
L 189.383335 -43.451266 
L 188.940814 -43.451266 
L 188.498293 -43.451266 
L 188.055772 -43.451266 
L 187.613251 -43.451266 
L 187.17073 -43.451266 
L 186.72821 -43.451266 
L 186.285689 -43.451266 
L 185.843168 -43.451266 
L 185.400647 -43.451266 
L 184.958126 -43.451266 
L 184.515605 -43.451266 
L 184.073084 -43.451266 
L 183.630563 -43.451266 
L 183.188042 -43.451266 
L 182.745521 -43.451266 
L 182.303 -43.451266 
L 181.860479 -43.451266 
L 181.417958 -43.451266 
L 180.975437 -43.451266 
L 180.532916 -43.451266 
L 180.090395 -43.451266 
L 179.647875 -43.451266 
L 179.205354 -43.451266 
L 178.762833 -43.451266 
L 178.320312 -43.451266 
L 177.877791 -43.451266 
L 177.43527 -43.451266 
L 176.992749 -43.451266 
L 176.550228 -43.451266 
L 176.107707 -43.451266 
L 175.665186 -43.451266 
L 175.222665 -43.451266 
L 174.780144 -43.451266 
L 174.337623 -43.451266 
L 173.895102 -43.451266 
L 173.452581 -43.451266 
L 173.01006 -43.451266 
L 172.56754 -43.451266 
L 172.125019 -43.451266 
L 171.682498 -43.451266 
L 171.239977 -43.451266 
L 170.797456 -43.451266 
L 170.354935 -43.451266 
L 169.912414 -43.451266 
L 169.469893 -43.451266 
L 169.027372 -43.451266 
L 168.584851 -43.451266 
L 168.14233 -43.451266 
L 167.699809 -43.451266 
L 167.257288 -43.451266 
L 166.814767 -43.451266 
L 166.372246 -43.451266 
L 165.929725 -43.451266 
L 165.487205 -43.451266 
L 165.044684 -43.451266 
L 164.602163 -43.451266 
L 164.159642 -43.451266 
L 163.717121 -43.451266 
L 163.2746 -43.451266 
L 162.832079 -43.451266 
L 162.389558 -43.451266 
L 161.947037 -43.451266 
L 161.504516 -43.451266 
L 161.061995 -43.451266 
L 160.619474 -43.451266 
L 160.176953 -43.451266 
L 159.734432 -43.451266 
L 159.291911 -43.451266 
L 158.84939 -43.451266 
L 158.40687 -43.451266 
L 157.964349 -43.451266 
L 157.521828 -43.451266 
L 157.079307 -43.451266 
L 156.636786 -43.451266 
L 156.194265 -43.451266 
L 155.751744 -43.451266 
L 155.309223 -43.451266 
L 154.866702 -43.451266 
L 154.424181 -43.451266 
L 153.98166 -43.451266 
L 153.539139 -43.451266 
L 153.096618 -43.451266 
L 152.654097 -43.451266 
L 152.211576 -43.451266 
L 151.769055 -43.451266 
L 151.326535 -43.451266 
L 150.884014 -43.451266 
L 150.441493 -43.451266 
L 149.998972 -43.451266 
L 149.556451 -43.451266 
L 149.11393 -43.451266 
L 148.671409 -43.451266 
L 148.228888 -43.451266 
L 147.786367 -43.451266 
L 147.343846 -43.451266 
L 146.901325 -43.451266 
L 146.458804 -43.451266 
L 146.016283 -43.451266 
L 145.573762 -43.451266 
L 145.131241 -43.451266 
L 144.68872 -43.451266 
L 144.2462 -43.451266 
L 143.803679 -43.451266 
L 143.361158 -43.451266 
L 142.918637 -43.451266 
L 142.476116 -43.451266 
L 142.033595 -43.451266 
L 141.591074 -43.451266 
L 141.148553 -43.451266 
L 140.706032 -43.451266 
L 140.263511 -43.451266 
L 139.82099 -43.451266 
L 139.378469 -43.451266 
L 138.935948 -43.451266 
L 138.493427 -43.451266 
L 138.050906 -43.451266 
L 137.608385 -43.451266 
L 137.165865 -43.451266 
L 136.723344 -43.451266 
L 136.280823 -43.451266 
L 135.838302 -43.451266 
L 135.395781 -43.451266 
L 134.95326 -43.451266 
L 134.510739 -43.451266 
L 134.068218 -43.451266 
L 133.625697 -43.451266 
L 133.183176 -43.451266 
L 132.740655 -43.451266 
L 132.298134 -43.451266 
L 131.855613 -43.451266 
L 131.413092 -43.451266 
L 130.970571 -43.451266 
L 130.52805 -43.451266 
L 130.08553 -43.451266 
L 129.643009 -43.451266 
L 129.200488 -43.451266 
L 128.757967 -43.451266 
L 128.315446 -43.451266 
L 127.872925 -43.451266 
L 127.430404 -43.451266 
L 126.987883 -43.451266 
L 126.545362 -43.451266 
L 126.102841 -43.451266 
L 125.66032 -43.451266 
L 125.217799 -43.451266 
L 124.775278 -43.451266 
L 124.332757 -43.451266 
L 123.890236 -43.451266 
L 123.447715 -43.451266 
L 123.005195 -43.451266 
L 122.562674 -43.451266 
L 122.120153 -43.451266 
z
"/>
    </defs>
    <g clip-path="url(#p7e964698a8)">
     <use xlink:href="#mcfc927c09b" x="0" y="259.79976" style="fill: #0072b2; fill-opacity: 0.3"/>
    </g>
   </g>
   <g id="line2d_31">
    <path d="M 46.507667 216.198444 
L 50.289983 215.934878 
L 53.040759 215.532966 
L 55.103841 215.03414 
L 56.823075 214.432116 
L 58.54231 213.605626 
L 60.261545 212.493802 
L 61.636932 211.352985 
L 63.01232 209.947758 
L 64.387708 208.238664 
L 65.763096 206.185948 
L 67.138484 203.750965 
L 68.513871 200.89776 
L 69.889259 197.594728 
L 71.608494 192.795101 
L 73.327729 187.220318 
L 75.046963 180.860085 
L 77.110045 172.21447 
L 79.173127 162.539564 
L 81.580055 150.133866 
L 84.674678 132.894963 
L 92.583157 88.144025 
L 94.990086 76.232764 
L 96.709321 68.699588 
L 98.428555 62.153156 
L 99.803943 57.716345 
L 101.179331 54.052951 
L 102.210872 51.840347 
L 103.242413 50.102223 
L 104.273953 48.848066 
L 104.961647 48.28337 
L 105.649341 47.936165 
L 106.337035 47.80565 
L 107.024729 47.890028 
L 107.712423 48.186502 
L 108.400117 48.691289 
L 109.431657 49.828395 
L 110.463198 51.403282 
L 111.494739 53.39144 
L 112.870127 56.635153 
L 114.245515 60.484477 
L 115.964749 66.014685 
L 118.027831 73.461812 
L 121.122454 85.613117 
L 126.624005 107.35078 
L 129.37478 117.285047 
L 132.125556 126.327577 
L 134.876331 134.552834 
L 138.314801 144.050616 
L 147.598668 169.248359 
L 153.787913 186.320718 
L 156.538689 193.204581 
L 158.60177 197.825548 
L 160.664852 201.885971 
L 162.384087 204.808478 
L 164.103321 207.306601 
L 165.822556 209.394273 
L 167.541791 211.099887 
L 169.261025 212.462181 
L 170.98026 213.525963 
L 172.699495 214.338147 
L 174.762577 215.044838 
L 177.169505 215.589816 
L 179.920281 215.958913 
L 183.702597 216.20521 
L 183.702597 216.20521 
" clip-path="url(#p7e964698a8)" style="fill: none; stroke: #d55e00; stroke-width: 1.6; stroke-linecap: round"/>
   </g>
   <g id="line2d_32">
    <defs>
     <path id="mf9ed7ea917" d="M 0 3 
L 0 -3 
"/>
    </defs>
    <g clip-path="url(#p7e964698a8)">
     <use xlink:href="#mf9ed7ea917" x="143.597913" y="217.664921" style="fill: #d55e00; fill-opacity: 0.7"/>
     <use xlink:href="#mf9ed7ea917" x="128.584895" y="217.664921" style="fill: #d55e00; fill-opacity: 0.7"/>
     <use xlink:href="#mf9ed7ea917" x="117.232507" y="217.664921" style="fill: #d55e00; fill-opacity: 0.7"/>
     <use xlink:href="#mf9ed7ea917" x="112.188794" y="217.664921" style="fill: #d55e00; fill-opacity: 0.7"/>
     <use xlink:href="#mf9ed7ea917" x="106.85972" y="217.664921" style="fill: #d55e00; fill-opacity: 0.7"/>
     <use xlink:href="#mf9ed7ea917" x="100.758448" y="217.664921" style="fill: #d55e00; fill-opacity: 0.7"/>
     <use xlink:href="#mf9ed7ea917" x="96.660548" y="217.664921" style="fill: #d55e00; fill-opacity: 0.7"/>
     <use xlink:href="#mf9ed7ea917" x="86.612351" y="217.664921" style="fill: #d55e00; fill-opacity: 0.7"/>
    </g>
   </g>
   <g id="line2d_33">
    <path d="M 109.524257 226.157885 
L 109.524257 39.312687 
" clip-path="url(#p7e964698a8)" style="fill: none; stroke-dasharray: 1,1.65; stroke-dashoffset: 0; stroke: #d55e00; stroke-opacity: 0.9"/>
   </g>
   <g id="line2d_34">
    <path d="M 122.120153 205.62976 
L 125.217799 203.47073 
L 128.315446 201.044271 
L 131.413092 198.35387 
L 134.95326 194.970811 
L 138.493427 191.287945 
L 142.918637 186.330264 
L 148.228888 180.012836 
L 161.504516 164.020207 
L 165.487205 159.61515 
L 169.027372 155.997159 
L 172.125019 153.106765 
L 175.222665 150.504589 
L 178.320312 148.212993 
L 180.975437 146.507583 
L 183.630563 145.046864 
L 186.285689 143.832504 
L 188.940814 142.86279 
L 191.59594 142.132957 
L 194.251065 141.635564 
L 196.906191 141.360903 
L 199.561317 141.297436 
L 202.216442 141.432233 
L 205.314089 141.821555 
L 208.411735 142.439065 
L 211.951903 143.395093 
L 215.49207 144.587242 
L 219.474759 146.174702 
L 223.899968 148.204815 
L 228.325178 150.483002 
L 233.192908 153.253626 
L 238.060638 156.29631 
L 242.928369 159.619629 
L 247.796099 163.236922 
L 252.663829 167.154453 
L 257.531559 171.359565 
L 263.284332 176.642304 
L 272.13475 185.134317 
L 279.657606 192.241607 
L 284.525337 196.546148 
L 288.508025 199.798085 
L 292.490714 202.75379 
L 296.030881 205.105222 
L 298.686007 206.690214 
L 298.686007 206.690214 
" clip-path="url(#p7e964698a8)" style="fill: none; stroke: #0072b2; stroke-width: 1.6; stroke-linecap: round"/>
   </g>
   <g id="line2d_35">
    <defs>
     <path id="md21f3030c0" d="M 0 3 
L 0 -3 
"/>
    </defs>
    <g clip-path="url(#p7e964698a8)">
     <use xlink:href="#md21f3030c0" x="258.581323" y="217.664921" style="fill: #0072b2; fill-opacity: 0.7"/>
     <use xlink:href="#md21f3030c0" x="228.437001" y="217.664921" style="fill: #0072b2; fill-opacity: 0.7"/>
     <use xlink:href="#md21f3030c0" x="204.351698" y="217.664921" style="fill: #0072b2; fill-opacity: 0.7"/>
     <use xlink:href="#md21f3030c0" x="185.055333" y="217.664921" style="fill: #0072b2; fill-opacity: 0.7"/>
     <use xlink:href="#md21f3030c0" x="162.224836" y="217.664921" style="fill: #0072b2; fill-opacity: 0.7"/>
    </g>
   </g>
   <g id="line2d_36">
    <path d="M 204.351698 226.157885 
L 204.351698 39.312687 
" clip-path="url(#p7e964698a8)" style="fill: none; stroke-dasharray: 1,1.65; stroke-dashoffset: 0; stroke: #0072b2; stroke-opacity: 0.9"/>
   </g>
   <g id="line2d_37">
    <path d="M 108.52464 226.157885 
L 108.52464 39.312687 
" clip-path="url(#p7e964698a8)" style="fill: none; stroke-dasharray: 3.33,1.44; stroke-dashoffset: 0; stroke: #555555; stroke-width: 0.9"/>
   </g>
   <g id="patch_3">
    <path d="M 33.89875 226.157885 
L 33.89875 39.312687 
" style="fill: none; stroke: #222222; stroke-width: 0.8; stroke-linejoin: miter; stroke-linecap: square"/>
   </g>
   <g id="patch_4">
    <path d="M 33.89875 226.157885 
L 311.294924 226.157885 
" style="fill: none; stroke: #222222; stroke-width: 0.8; stroke-linejoin: miter; stroke-linecap: square"/>
   </g>
   <g id="text_18">
    <!-- $\mathrm{GSNR}=1$ -->
    <g style="fill: #555555" transform="translate(111.198286 239.237049)">
     <text>
      <tspan x="0" y="-0" style="font-size: 8.5px; font-family: 'cmr10'; fill: #555555">G</tspan>
      <tspan x="6.665527" y="-0" style="font-size: 8.5px; font-family: 'cmr10'; fill: #555555">S</tspan>
      <tspan x="11.384521" y="-0" style="font-size: 8.5px; font-family: 'cmr10'; fill: #555555">N</tspan>
      <tspan x="17.759521" y="-0" style="font-size: 8.5px; font-family: 'cmr10'; fill: #555555">R</tspan>
      <tspan x="25.506641" y="-0" style="font-size: 8.5px; font-family: 'cmr10'; fill: #555555">=</tspan>
      <tspan x="33.602393" y="-0" style="font-size: 8.5px; font-family: 'cmr10'; fill: #555555">1</tspan>
     </text>
    </g>
   </g>
   <g id="text_19">
    <text style="font-weight: 700; font-size: 11px; font-family: 'Liberation Serif', serif; text-anchor: start; fill: #111111" x="6.159133" y="25.759319" transform="rotate(-0 6.159133 25.759319)">(a)</text>
   </g>
   <g id="text_20">
    <text style="font-weight: 700; font-size: 10.5px; font-family: 'Liberation Serif', serif; text-anchor: start; fill: #262626" x="33.89875" y="35.312687" transform="rotate(-0 33.89875 35.312687)">Distribution shift across best-step</text>
   </g>
   <g id="legend_1">
    <g id="text_21">
     <text style="font-size: 9px; font-family: 'Liberation Serif', serif; text-anchor: start; fill: #262626" x="268.154611" y="52.357843" transform="rotate(-0 268.154611 52.357843)">regime</text>
    </g>
    <g id="line2d_38">
     <path d="M 256.801955 61.524874 
L 263.176955 61.524874 
L 269.551955 61.524874 
" style="fill: none; stroke: #d55e00; stroke-width: 1.6; stroke-linecap: round"/>
    </g>
    <g id="text_22">
     <text style="font-size: 8.5px; font-family: 'Liberation Serif', serif; text-anchor: start; fill: #262626" x="273.801955" y="64.499874" transform="rotate(-0 273.801955 64.499874)">post-best</text>
    </g>
    <g id="line2d_39">
     <path d="M 256.801955 73.535109 
L 263.176955 73.535109 
L 269.551955 73.535109 
" style="fill: none; stroke: #0072b2; stroke-width: 1.6; stroke-linecap: round"/>
    </g>
    <g id="text_23">
     <text style="font-size: 8.5px; font-family: 'Liberation Serif', serif; text-anchor: start; fill: #262626" x="273.801955" y="76.510109" transform="rotate(-0 273.801955 76.510109)">pre-best</text>
    </g>
   </g>
  </g>
  <g id="axes_2">
   <g id="patch_5">
    <path d="M 359.148738 226.157885 
L 544.07952 226.157885 
L 544.07952 39.312687 
L 359.148738 39.312687 
z
" style="fill: #ffffff"/>
   </g>
   <g id="matplotlib.axis_3">
    <g id="xtick_10">
     <g id="line2d_40">
      <g>
       <use xlink:href="#m38806bbb4d" x="405.381433" y="226.157885" style="fill: #222222; stroke: #222222; stroke-width: 0.8"/>
      </g>
     </g>
     <g id="text_24">
      <text style="font-size: 9px; font-family: 'Liberation Serif', serif; text-anchor: middle; fill: #222222" x="405.381433" y="240.703041" transform="rotate(-0 405.381433 240.703041)">pre-best</text>
     </g>
    </g>
    <g id="xtick_11">
     <g id="line2d_41">
      <g>
       <use xlink:href="#m38806bbb4d" x="497.846824" y="226.157885" style="fill: #222222; stroke: #222222; stroke-width: 0.8"/>
      </g>
     </g>
     <g id="text_25">
      <text style="font-size: 9px; font-family: 'Liberation Serif', serif; text-anchor: middle; fill: #222222" x="497.846824" y="240.703041" transform="rotate(-0 497.846824 240.703041)">post-best</text>
     </g>
    </g>
   </g>
   <g id="matplotlib.axis_4">
    <g id="ytick_7">
     <g id="line2d_42">
      <path d="M 359.148738 222.429905 
L 544.07952 222.429905 
" clip-path="url(#pf60a2c47b6)" style="fill: none; stroke-dasharray: 0.45,1.35; stroke-dashoffset: 0; stroke: #b8b8b8; stroke-opacity: 0.55; stroke-width: 0.45"/>
     </g>
     <g id="line2d_43">
      <g>
       <use xlink:href="#mf84e8c8d76" x="359.148738" y="222.429905" style="fill: #222222; stroke: #222222"/>
      </g>
     </g>
     <g id="text_26">
      <text style="font-size: 9px; font-family: 'Liberation Serif', serif; text-anchor: end; fill: #222222" x="352.448738" y="225.552483" transform="rotate(-0 352.448738 225.552483)">−0.2</text>
     </g>
    </g>
    <g id="ytick_8">
     <g id="line2d_44">
      <path d="M 359.148738 196.02145 
L 544.07952 196.02145 
" clip-path="url(#pf60a2c47b6)" style="fill: none; stroke-dasharray: 0.45,1.35; stroke-dashoffset: 0; stroke: #b8b8b8; stroke-opacity: 0.55; stroke-width: 0.45"/>
     </g>
     <g id="line2d_45">
      <g>
       <use xlink:href="#mf84e8c8d76" x="359.148738" y="196.02145" style="fill: #222222; stroke: #222222"/>
      </g>
     </g>
     <g id="text_27">
      <text style="font-size: 9px; font-family: 'Liberation Serif', serif; text-anchor: end; fill: #222222" x="352.448738" y="199.144028" transform="rotate(-0 352.448738 199.144028)">0.0</text>
     </g>
    </g>
    <g id="ytick_9">
     <g id="line2d_46">
      <path d="M 359.148738 169.612995 
L 544.07952 169.612995 
" clip-path="url(#pf60a2c47b6)" style="fill: none; stroke-dasharray: 0.45,1.35; stroke-dashoffset: 0; stroke: #b8b8b8; stroke-opacity: 0.55; stroke-width: 0.45"/>
     </g>
     <g id="line2d_47">
      <g>
       <use xlink:href="#mf84e8c8d76" x="359.148738" y="169.612995" style="fill: #222222; stroke: #222222"/>
      </g>
     </g>
     <g id="text_28">
      <text style="font-size: 9px; font-family: 'Liberation Serif', serif; text-anchor: end; fill: #222222" x="352.448738" y="172.735573" transform="rotate(-0 352.448738 172.735573)">0.2</text>
     </g>
    </g>
    <g id="ytick_10">
     <g id="line2d_48">
      <path d="M 359.148738 143.20454 
L 544.07952 143.20454 
" clip-path="url(#pf60a2c47b6)" style="fill: none; stroke-dasharray: 0.45,1.35; stroke-dashoffset: 0; stroke: #b8b8b8; stroke-opacity: 0.55; stroke-width: 0.45"/>
     </g>
     <g id="line2d_49">
      <g>
       <use xlink:href="#mf84e8c8d76" x="359.148738" y="143.20454" style="fill: #222222; stroke: #222222"/>
      </g>
     </g>
     <g id="text_29">
      <text style="font-size: 9px; font-family: 'Liberation Serif', serif; text-anchor: end; fill: #222222" x="352.448738" y="146.327118" transform="rotate(-0 352.448738 146.327118)">0.4</text>
     </g>
    </g>
    <g id="ytick_11">
     <g id="line2d_50">
      <path d="M 359.148738 116.796085 
L 544.07952 116.796085 
" clip-path="url(#pf60a2c47b6)" style="fill: none; stroke-dasharray: 0.45,1.35; stroke-dashoffset: 0; stroke: #b8b8b8; stroke-opacity: 0.55; stroke-width: 0.45"/>
     </g>
     <g id="line2d_51">
      <g>
       <use xlink:href="#mf84e8c8d76" x="359.148738" y="116.796085" style="fill: #222222; stroke: #222222"/>
      </g>
     </g>
     <g id="text_30">
      <text style="font-size: 9px; font-family: 'Liberation Serif', serif; text-anchor: end; fill: #222222" x="352.448738" y="119.918663" transform="rotate(-0 352.448738 119.918663)">0.6</text>
     </g>
    </g>
    <g id="ytick_12">
     <g id="line2d_52">
      <path d="M 359.148738 90.387629 
L 544.07952 90.387629 
" clip-path="url(#pf60a2c47b6)" style="fill: none; stroke-dasharray: 0.45,1.35; stroke-dashoffset: 0; stroke: #b8b8b8; stroke-opacity: 0.55; stroke-width: 0.45"/>
     </g>
     <g id="line2d_53">
      <g>
       <use xlink:href="#mf84e8c8d76" x="359.148738" y="90.387629" style="fill: #222222; stroke: #222222"/>
      </g>
     </g>
     <g id="text_31">
      <text style="font-size: 9px; font-family: 'Liberation Serif', serif; text-anchor: end; fill: #222222" x="352.448738" y="93.510207" transform="rotate(-0 352.448738 93.510207)">0.8</text>
     </g>
    </g>
    <g id="ytick_13">
     <g id="line2d_54">
      <path d="M 359.148738 63.979174 
L 544.07952 63.979174 
" clip-path="url(#pf60a2c47b6)" style="fill: none; stroke-dasharray: 0.45,1.35; stroke-dashoffset: 0; stroke: #b8b8b8; stroke-opacity: 0.55; stroke-width: 0.45"/>
     </g>
     <g id="line2d_55">
      <g>
       <use xlink:href="#mf84e8c8d76" x="359.148738" y="63.979174" style="fill: #222222; stroke: #222222"/>
      </g>
     </g>
     <g id="text_32">
      <text style="font-size: 9px; font-family: 'Liberation Serif', serif; text-anchor: end; fill: #222222" x="352.448738" y="67.101752" transform="rotate(-0 352.448738 67.101752)">1.0</text>
     </g>
    </g>
    <g id="text_33">
     <!-- $\log_{10}\,\mathrm{GSNR}$ -->
     <g style="fill: #111111" transform="translate(329.993894 158.785286) rotate(-90)">
      <text>
       <tspan x="0" y="-0.953125" style="font-size: 10px; font-family: 'cmr10'; fill: #111111">l</tspan>
       <tspan x="2.768555" y="-0.953125" style="font-size: 10px; font-family: 'cmr10'; fill: #111111">o</tspan>
       <tspan x="7.768555" y="-0.953125" style="font-size: 10px; font-family: 'cmr10'; fill: #111111">g</tspan>
       <tspan x="23.779194" y="-0.953125" style="font-size: 10px; font-family: 'cmr10'; fill: #111111">G</tspan>
       <tspan x="31.620991" y="-0.953125" style="font-size: 10px; font-family: 'cmr10'; fill: #111111">S</tspan>
       <tspan x="37.172749" y="-0.953125" style="font-size: 10px; font-family: 'cmr10'; fill: #111111">N</tspan>
       <tspan x="44.672749" y="-0.953125" style="font-size: 10px; font-family: 'cmr10'; fill: #111111">R</tspan>
       <tspan x="13.214969" y="0.7475" style="font-size: 7px; font-family: 'cmr10'; fill: #111111">1</tspan>
       <tspan x="16.714969" y="0.7475" style="font-size: 7px; font-family: 'cmr10'; fill: #111111">0</tspan>
      </text>
     </g>
    </g>
   </g>
   <g id="patch_6">
    <path d="M 382.265085 120.42963 
L 428.497781 120.42963 
L 428.497781 77.580164 
L 382.265085 77.580164 
L 382.265085 120.42963 
z
" clip-path="url(#pf60a2c47b6)" style="fill: #166c9c; opacity: 0.55; stroke: #353535; stroke-width: 0.8; stroke-linejoin: miter"/>
   </g>
   <g id="line2d_56">
    <path d="M 405.381433 120.42963 
L 405.381433 142.980043 
" clip-path="url(#pf60a2c47b6)" style="fill: none; stroke: #353535; stroke-width: 0.8"/>
   </g>
   <g id="line2d_57">
    <path d="M 405.381433 77.580164 
L 405.381433 47.80565 
" clip-path="url(#pf60a2c47b6)" style="fill: none; stroke: #353535; stroke-width: 0.8"/>
   </g>
   <g id="line2d_58">
    <path d="M 393.823259 142.980043 
L 416.939607 142.980043 
" clip-path="url(#pf60a2c47b6)" style="fill: none; stroke: #353535; stroke-width: 0.8; stroke-linecap: round"/>
   </g>
   <g id="line2d_59">
    <path d="M 393.823259 47.80565 
L 416.939607 47.80565 
" clip-path="url(#pf60a2c47b6)" style="fill: none; stroke: #353535; stroke-width: 0.8; stroke-linecap: round"/>
   </g>
   <g id="line2d_60"/>
   <g id="patch_7">
    <path d="M 474.730477 204.704274 
L 520.963172 204.704274 
L 520.963172 184.617131 
L 474.730477 184.617131 
L 474.730477 204.704274 
z
" clip-path="url(#pf60a2c47b6)" style="fill: #ba611b; opacity: 0.55; stroke: #353535; stroke-width: 0.8; stroke-linejoin: miter"/>
   </g>
   <g id="line2d_61">
    <path d="M 497.846824 204.704274 
L 497.846824 217.664921 
" clip-path="url(#pf60a2c47b6)" style="fill: none; stroke: #353535; stroke-width: 0.8"/>
   </g>
   <g id="line2d_62">
    <path d="M 497.846824 184.617131 
L 497.846824 161.378453 
" clip-path="url(#pf60a2c47b6)" style="fill: none; stroke: #353535; stroke-width: 0.8"/>
   </g>
   <g id="line2d_63">
    <path d="M 486.28865 217.664921 
L 509.404998 217.664921 
" clip-path="url(#pf60a2c47b6)" style="fill: none; stroke: #353535; stroke-width: 0.8; stroke-linecap: round"/>
   </g>
   <g id="line2d_64">
    <path d="M 486.28865 161.378453 
L 509.404998 161.378453 
" clip-path="url(#pf60a2c47b6)" style="fill: none; stroke: #353535; stroke-width: 0.8; stroke-linecap: round"/>
   </g>
   <g id="line2d_65"/>
   <g id="line2d_66">
    <path d="M 359.148738 196.02145 
L 544.07952 196.02145 
" clip-path="url(#pf60a2c47b6)" style="fill: none; stroke-dasharray: 3.33,1.44; stroke-dashoffset: 0; stroke: #555555; stroke-width: 0.9"/>
   </g>
   <g id="line2d_67">
    <path d="M 382.265085 101.369991 
L 428.497781 101.369991 
" clip-path="url(#pf60a2c47b6)" style="fill: none; stroke: #353535; stroke-width: 0.8"/>
   </g>
   <g id="line2d_68">
    <path d="M 474.730477 195.034096 
L 520.963172 195.034096 
" clip-path="url(#pf60a2c47b6)" style="fill: none; stroke: #353535; stroke-width: 0.8"/>
   </g>
   <g id="patch_8">
    <path d="M 359.148738 226.157885 
L 359.148738 39.312687 
" style="fill: none; stroke: #222222; stroke-width: 0.8; stroke-linejoin: miter; stroke-linecap: square"/>
   </g>
   <g id="patch_9">
    <path d="M 359.148738 226.157885 
L 544.07952 226.157885 
" style="fill: none; stroke: #222222; stroke-width: 0.8; stroke-linejoin: miter; stroke-linecap: square"/>
   </g>
   <g id="PathCollection_1">
    <defs>
     <path id="C0_0_e47fee744b" d="M 0 1.3 
C 0.344764 1.3 0.675454 1.163024 0.919239 0.919239 
C 1.163024 0.675454 1.3 0.344764 1.3 -0 
C 1.3 -0.344764 1.163024 -0.675454 0.919239 -0.919239 
C 0.675454 -1.163024 0.344764 -1.3 0 -1.3 
C -0.344764 -1.3 -0.675454 -1.163024 -0.919239 -0.919239 
C -1.163024 -0.675454 -1.3 -0.344764 -1.3 0 
C -1.3 0.344764 -1.163024 0.675454 -0.919239 0.919239 
C -0.675454 1.163024 -0.344764 1.3 0 1.3 
z
"/>
    </defs>
    <g clip-path="url(#pf60a2c47b6)">
     <use xlink:href="#C0_0_e47fee744b" x="418.081481" y="47.80565" style="fill: #0072b2; fill-opacity: 0.85"/>
    </g>
    <g clip-path="url(#pf60a2c47b6)">
     <use xlink:href="#C0_0_e47fee744b" x="391.912437" y="77.580164" style="fill: #0072b2; fill-opacity: 0.85"/>
    </g>
    <g clip-path="url(#pf60a2c47b6)">
     <use xlink:href="#C0_0_e47fee744b" x="413.508768" y="101.369991" style="fill: #0072b2; fill-opacity: 0.85"/>
    </g>
    <g clip-path="url(#pf60a2c47b6)">
     <use xlink:href="#C0_0_e47fee744b" x="414.115384" y="120.42963" style="fill: #0072b2; fill-opacity: 0.85"/>
    </g>
    <g clip-path="url(#pf60a2c47b6)">
     <use xlink:href="#C0_0_e47fee744b" x="420.943211" y="142.980043" style="fill: #0072b2; fill-opacity: 0.85"/>
    </g>
   </g>
   <g id="PathCollection_2">
    <defs>
     <path id="C1_0_488254b737" d="M 0 1.3 
C 0.344764 1.3 0.675454 1.163024 0.919239 0.919239 
C 1.163024 0.675454 1.3 0.344764 1.3 -0 
C 1.3 -0.344764 1.163024 -0.675454 0.919239 -0.919239 
C 0.675454 -1.163024 0.344764 -1.3 0 -1.3 
C -0.344764 -1.3 -0.675454 -1.163024 -0.919239 -0.919239 
C -1.163024 -0.675454 -1.3 -0.344764 -1.3 0 
C -1.3 0.344764 -1.163024 0.675454 -0.919239 0.919239 
C -0.675454 1.163024 -0.344764 1.3 0 1.3 
z
"/>
    </defs>
    <g clip-path="url(#pf60a2c47b6)">
     <use xlink:href="#C1_0_488254b737" x="496.170358" y="161.378453" style="fill: #d55e00; fill-opacity: 0.85"/>
    </g>
    <g clip-path="url(#pf60a2c47b6)">
     <use xlink:href="#C1_0_488254b737" x="496.718676" y="176.207293" style="fill: #d55e00; fill-opacity: 0.85"/>
    </g>
    <g clip-path="url(#pf60a2c47b6)">
     <use xlink:href="#C1_0_488254b737" x="511.996385" y="187.420411" style="fill: #d55e00; fill-opacity: 0.85"/>
    </g>
    <g clip-path="url(#pf60a2c47b6)">
     <use xlink:href="#C1_0_488254b737" x="491.60995" y="192.402247" style="fill: #d55e00; fill-opacity: 0.85"/>
    </g>
    <g clip-path="url(#pf60a2c47b6)">
     <use xlink:href="#C1_0_488254b737" x="511.279086" y="197.665945" style="fill: #d55e00; fill-opacity: 0.85"/>
    </g>
    <g clip-path="url(#pf60a2c47b6)">
     <use xlink:href="#C1_0_488254b737" x="502.093067" y="203.692367" style="fill: #d55e00; fill-opacity: 0.85"/>
    </g>
    <g clip-path="url(#pf60a2c47b6)">
     <use xlink:href="#C1_0_488254b737" x="486.76992" y="207.739994" style="fill: #d55e00; fill-opacity: 0.85"/>
    </g>
    <g clip-path="url(#pf60a2c47b6)">
     <use xlink:href="#C1_0_488254b737" x="495.963343" y="217.664921" style="fill: #d55e00; fill-opacity: 0.85"/>
    </g>
   </g>
   <g id="text_34">
    <text style="font-weight: 700; font-size: 11px; font-family: 'Liberation Serif', serif; text-anchor: start; fill: #111111" x="340.655659" y="25.759319" transform="rotate(-0 340.655659 25.759319)">(b)</text>
   </g>
   <g id="text_35">
    <text style="font-size: 8.5px; font-family: 'Liberation Serif', serif; text-anchor: middle; fill: #222222" x="451.614129" y="41.203537" transform="rotate(-0 451.614129 41.203537)">Mann-Whitney  pre &gt; post:  p = 0.00078</text>
   </g>
   <g id="text_36">
    <text style="font-weight: 700; font-size: 10.5px; font-family: 'Liberation Serif', serif; text-anchor: start; fill: #262626" x="359.148738" y="35.312687" transform="rotate(-0 359.148738 35.312687)">Split comparison</text>
   </g>
  </g>
  <g id="text_37">
   <text style="font-weight: 700; font-size: 11.5px; font-family: 'Liberation Serif', serif; text-anchor: start; fill: #262626" x="10.82376" y="10.859922" transform="rotate(-0 10.82376 10.859922)">GSNR density &amp; regime split  —  pre- vs post-best step</text>
  </g>
 </g>
 <defs>
  <clipPath id="p7e964698a8">
   <rect x="33.89875" y="39.312687" width="277.396174" height="186.845198"/>
  </clipPath>
  <clipPath id="pf60a2c47b6">
   <rect x="359.148738" y="39.312687" width="184.930782" height="186.845198"/>
  </clipPath>
 </defs>
</svg>
